<svg id="레이어_1" data-name="레이어 1" xmlns="http://www.w3.org/2000/svg" viewBox="0 0 70.71 65.06"><defs><style>.cls-1{fill:#d64141;stroke:#111;stroke-miterlimit:10;}.cls-2{fill:#111;}</style></defs><title>close</title><path class="cls-1" d="M52.87,1.62c-11.58,0-15.73,11.11-15.73,11.11S33,1.62,21.42,1.62s-23.3,13.9-15.73,30c8.56,18.22,31.45,30,31.45,30S60,49.84,68.6,31.62C76.17,15.52,64.45,1.62,52.87,1.62Z" transform="translate(-0.79 -1.12)"/><path class="cls-1" d="M50.87,5.62c-11.58,0-15.73,11.11-15.73,11.11S31,5.62,19.42,5.62s-23.3,13.9-15.73,30c8.56,18.22,31.45,30,31.45,30S58,53.84,66.6,35.62C74.17,19.52,62.45,5.62,50.87,5.62Z" transform="translate(-0.79 -1.12)"/><path class="cls-2" d="M20.9,38.51a.65.65,0,0,1-.18.37,5.35,5.35,0,0,1-4.3,1.93A5.74,5.74,0,0,1,12,38.93a6.47,6.47,0,0,1-1.66-4.57,6.62,6.62,0,0,1,1.63-4.53,5.46,5.46,0,0,1,4.31-1.95,5.78,5.78,0,0,1,4.47,1.75.55.55,0,0,1,.17.34,5.47,5.47,0,0,1-.61,1.24,7.18,7.18,0,0,1-.77,1.2.21.21,0,0,1-.17.07,1.92,1.92,0,0,1-.44-.35,5,5,0,0,0-.93-.66,3.26,3.26,0,0,0-1.45-.35,2.48,2.48,0,0,0-2.06,1,3.39,3.39,0,0,0-.71,2.21,3.47,3.47,0,0,0,.71,2.24,2.47,2.47,0,0,0,2.06,1A3.16,3.16,0,0,0,18,37.19a4.31,4.31,0,0,0,.92-.61,2.73,2.73,0,0,1,.43-.34.28.28,0,0,1,.18.1c.09.11.34.47.76,1.1A6.35,6.35,0,0,1,20.9,38.51Z" transform="translate(-0.79 -1.12)"/><path class="cls-2" d="M29.39,40.65c-.51,0-1.16,0-2,0l-2,0-2.63,0c-.26,0-.64,0-1.13,0-.17,0-.26-.12-.26-.27,0-.64,0-1.6,0-2.87s0-2.23,0-2.87,0-1.7-.07-3.06-.06-2.37-.06-3.05c0-.13.09-.2.27-.2l.78,0,.78,0,.86,0,.86,0c.09,0,.13.05.13.16v.12c-.07,1.1-.15,2.75-.24,5v2.32c0,.75,0,1.3,0,1.65l0,.21c0,.07.05.11.13.13h.23c.53,0,1.31,0,2.37-.08s1.84-.09,2.37-.09c.15,0,.23.07.23.2a13.07,13.07,0,0,1-.22,2.6q0,.22-.18.27A1.87,1.87,0,0,1,29.39,40.65Z" transform="translate(-0.79 -1.12)"/><path class="cls-2" d="M42.82,34.35a6.41,6.41,0,0,1-1.75,4.59,6.33,6.33,0,0,1-9,0,6.85,6.85,0,0,1,0-9.17,6.27,6.27,0,0,1,9,0A6.5,6.5,0,0,1,42.82,34.35Zm-3.33,0a3.31,3.31,0,0,0-.8-2.24,2.68,2.68,0,0,0-2.13-1,2.65,2.65,0,0,0-2.1,1,3.49,3.49,0,0,0-.06,4.47,2.76,2.76,0,0,0,2.16.94,2.71,2.71,0,0,0,2.11-1A3.23,3.23,0,0,0,39.49,34.33Z" transform="translate(-0.79 -1.12)"/><path class="cls-2" d="M49.59,36.46a3.9,3.9,0,0,1-1.51,3A6.49,6.49,0,0,1,44.88,41h-.12c-.13,0-.43-.42-.9-1.24a5.33,5.33,0,0,1-.69-1.51c0-.06,0-.1.13-.12A9.64,9.64,0,0,0,45,37.6a1.46,1.46,0,0,0,.91-1.36A2.1,2.1,0,0,0,45.31,35c-.7-.8-1.07-1.24-1.13-1.33a3.61,3.61,0,0,1-.61-2A3.19,3.19,0,0,1,45.06,29a6.56,6.56,0,0,1,3-1.14h.15q.14,0,.21.21c.15.43.51,1.2,1.06,2.32a.16.16,0,0,1,0,.09c0,.1-.05.15-.16.15l-.24,0-.25,0a2.14,2.14,0,0,0-1.11.29,1.05,1.05,0,0,0-.57.94,2.3,2.3,0,0,0,.63,1.31c.75.94,1.14,1.43,1.17,1.48A3.51,3.51,0,0,1,49.59,36.46Z" transform="translate(-0.79 -1.12)"/><path class="cls-2" d="M59.5,37.76a10.59,10.59,0,0,1-.14,1.39,4.88,4.88,0,0,1-.29,1.31.32.32,0,0,1-.29.17l-.26,0c-.43-.06-1.68-.08-3.74-.08h-4c-.19,0-.29-.09-.29-.26,0-.65,0-1.64.11-3s.11-2.31.11-3,0-1.91-.11-3.74c0-.47,0-1.17-.09-2.1v-.12c0-.14.06-.2.22-.2l1.95,0c.87,0,1.53,0,2,0s1.07,0,1.93,0l1.94,0c.3,0,.48.11.52.34s.08.54.14,1.23.09,1.09.09,1.24-.06.18-.17.18h-.19c-1.56-.13-3-.2-4.2-.2-.31,0-.5.08-.57.22a2.85,2.85,0,0,0,0,.68,1.22,1.22,0,0,0,.17.79.76.76,0,0,0,.57.17l.35,0h.42c.74,0,1.48,0,2.24-.06l.48,0,.48,0a.18.18,0,0,1,.21.2,10.65,10.65,0,0,0-.16,1.35,13.13,13.13,0,0,0-.07,1.4c0,.12-.09.18-.26.18l-.79-.09c-.33,0-1.09,0-2.28,0h-.93c-.24,0-.38.06-.43.17v.55a2.64,2.64,0,0,0,.08.86c.1.22.48.35,1.13.4h1.28c.31,0,.77,0,1.39-.09s1.07-.08,1.37-.08C59.44,37.45,59.5,37.55,59.5,37.76Z" transform="translate(-0.79 -1.12)"/></svg>