<svg id="레이어_1" data-name="레이어 1" xmlns="http://www.w3.org/2000/svg" viewBox="0 0 83.92 69.28"><defs><style>.cls-1{fill:#151515;}</style></defs><title>logo</title><path class="cls-1" d="M16.05,7.79c.59-2.86,4.49-3.88,6.87-4.24,1-.15,3.46-.79,3.75,0,.19.5-.48,1.77-.66,2.24-.83,2.15-1.93,4.19-2.87,6.29-1.05,2.35-3,6,.93,6.21,4.12.26,8.54-3,11.68-5.26,1.89-1.39-2.4-1.3-3.41-.55-.85.62-5.85,4.15-6.35,3.31s1.49-4.43,1.89-5.31c.84-1.81,4.67-7.47,2.46-9.2-1.51-1.18-6.08,0-7.8.27A20.8,20.8,0,0,0,16,3.78c-1.68,1-3.8,2.56-4.22,4.61-.3,1.46,4,.76,4.29-.6Z" transform="translate(-0.38 -0.76)"/><path class="cls-1" d="M15.4,11.52c-1.1,1.65-2.49,3.78-2.58,5.81-.14,3.49,6.31.85,7.51-.55.45-.53-1.59-.31-1.69-.3a4.52,4.52,0,0,0-2.54,1.11c-.9,1.05,1.24-.91,1.45-.27-.07-.22-.35-.36-.42-.68a4.58,4.58,0,0,1,.57-2.42,20.9,20.9,0,0,1,1.93-3.5c.39-.6-1.55-.33-1.69-.3-.75.14-2.07.4-2.54,1.1Z" transform="translate(-0.38 -0.76)"/><path class="cls-1" d="M20.3,23.38c2.45,1.67,2.36,5.76,2,8.26C20.31,44.82,9,56.83.59,66.29c-1.19,1.33,3.09,1,4,0C13.18,56.71,25,44.11,26.65,30.54c.34-2.73.27-7-2.35-8.81-1.22-.84-5.11.89-4,1.65Z" transform="translate(-0.38 -0.76)"/><path class="cls-1" d="M6.19,39.78c12.22,4.08,12.6,19.48,9.89,29.68-.29,1.09,4,.49,4.26-.7C23.24,57.83,22.51,42.27,9.7,38c-1.06-.35-4.92,1.31-3.51,1.78Z" transform="translate(-0.38 -0.76)"/><path d="M43.64,54a15.35,15.35,0,0,0,.75,5.47,3.73,3.73,0,0,0,2.15,2.35l-1.2,3a3.94,3.94,0,0,1-1.83-.89,6.75,6.75,0,0,1-1.63-2,7.14,7.14,0,0,1-1.66,2,4,4,0,0,1-1.82.89l-1.2-3a3.73,3.73,0,0,0,2.15-2.35A15.35,15.35,0,0,0,40.1,54V50.37h3.54Zm3.8-3.82H51.2V65.37H47.44V58.15H45.18v-3h2.26Z" transform="translate(-0.38 -0.76)"/><path d="M61.5,59H56.76v2.8H61.9v3H53V56h4.76v-2.6H53v-3h8.5Zm5.5,6.4H63.24V50.17H67Z" transform="translate(-0.38 -0.76)"/><path d="M77.3,59H72.56v2.8H77.7v3H68.8V56h4.76v-2.6H68.8v-3h8.5Zm5.5-3h1.5v3H82.8v6.42H79V50.17H82.8Z" transform="translate(-0.38 -0.76)"/><path d="M37,30.22a3.94,3.94,0,0,1,2.76.9,3.2,3.2,0,0,1,1,2.5,3.2,3.2,0,0,1-1,2.5A3.94,3.94,0,0,1,37,37H35.46a4,4,0,0,1-2.77-.9,3.2,3.2,0,0,1-1-2.5,3.2,3.2,0,0,1,1-2.5,4,4,0,0,1,2.77-.9v0H37ZM35.86,42.64v.6h10v2.2H32.09v-5H42v-.6H32.09v-2.2H45.7v5Zm.68-8.34a.64.64,0,0,0,.51-.19.69.69,0,0,0,.19-.51.72.72,0,0,0-.19-.52.67.67,0,0,0-.51-.18h-.62a.66.66,0,0,0-.71.7.67.67,0,0,0,.71.7Zm9.16,2.78H42V30.24H45.7Z" transform="translate(-0.38 -0.76)"/><path d="M61.7,30.24v15.2H57.94V39H56.7v1.72a4,4,0,0,1-4.5,4.5,4,4,0,0,1-4.5-4.5v-6a4.59,4.59,0,0,1,1.13-3.36,4.57,4.57,0,0,1,3.37-1.14,4.55,4.55,0,0,1,3.35,1.14,4.52,4.52,0,0,1,1.15,3.36V36h1.24V30.24Zm-8.8,3.7a.7.7,0,0,0-1.4,0v7.6a.7.7,0,0,0,1.4,0Z" transform="translate(-0.38 -0.76)"/></svg>