<?xml version="1.0" encoding="utf-8"?>
<!-- Generator: Adobe Illustrator 22.1.0, SVG Export Plug-In . SVG Version: 6.00 Build 0)  -->
<svg version="1.1" id="레이어_1" xmlns="http://www.w3.org/2000/svg" xmlns:xlink="http://www.w3.org/1999/xlink" x="0px"
	 y="0px" viewBox="0 0 388 341" style="enable-background:new 0 0 388 341;" xml:space="preserve">
<style type="text/css">
	.st0{fill:#F2BE45;}
	.st1{clip-path:url(#SVGID_2_);}
	.st2{fill:#E4EDEF;stroke:#111111;stroke-width:0.9021;stroke-linecap:round;stroke-linejoin:round;stroke-miterlimit:10;}
	.st3{fill:#F4D5C1;stroke:#111111;stroke-width:0.9024;stroke-linecap:round;stroke-linejoin:round;stroke-miterlimit:10;}
	.st4{fill:#1C1412;stroke:#111111;stroke-width:0.9025;stroke-miterlimit:10;}
	.st5{fill:none;stroke:#111111;stroke-width:1.2032;stroke-linecap:round;stroke-linejoin:round;stroke-miterlimit:10;}
	.st6{fill:#E2798D;stroke:#111111;stroke-width:0.9024;stroke-miterlimit:10;}
	.st7{fill:none;stroke:#CE6A6A;stroke-width:0.6016;stroke-miterlimit:10;}
	.st8{fill:none;stroke:#111111;stroke-width:0.6016;stroke-linecap:round;stroke-linejoin:round;stroke-miterlimit:10;}
	.st9{fill:none;stroke:#824A4A;stroke-width:0.6016;stroke-miterlimit:10;}
	.st10{fill:none;stroke:#111111;stroke-width:0.9024;stroke-linecap:round;stroke-linejoin:round;stroke-miterlimit:10;}
	.st11{fill:#2D221F;}
	.st12{fill:none;stroke:#6ED85B;stroke-width:0.6016;stroke-miterlimit:10;}
	.st13{fill:#DDE8F0;stroke:#111111;stroke-width:0.9021;stroke-miterlimit:10;}
	.st14{fill:#FFF2A6;}
	.st15{fill:#FFF2A6;stroke:#111111;stroke-width:0.9024;stroke-linecap:round;stroke-linejoin:round;stroke-miterlimit:10;}
	.st16{fill:#F4D5C1;}
</style>
<g>
	<g>
		<circle class="st0" cx="170.9" cy="170.5" r="170.5"/>
		<g>
			<defs>
				<path id="SVGID_1_" d="M341.4,170.5c0,11.1-1,22-3,32.5C399,104,388,305,388,305s-60,26-117.6,4c-28.1,20.3-62.2,32-99.5,32
					C76.7,341,0.4,264.7,0.4,170.5S76.7,0,170.9,0S341.4,76.3,341.4,170.5z"/>
			</defs>
			<clipPath id="SVGID_2_">
				<use xlink:href="#SVGID_1_"  style="overflow:visible;"/>
			</clipPath>
			<g class="st1">
				<path class="st2" d="M333.9,281.5c0,0-7.1,21.9-6.4,28.3l-5.3-1.4l-9.6-15c0,0-1.8-9-1.2-9.6S333.9,281.5,333.9,281.5z"/>
				<path class="st3" d="M387,245.8c-0.6-2.5-1.8-4.9-3.5-6.8c-2.1-2.5-4.6-4.6-7.3-6.4c-5.2-3.7-11-6.4-16.8-8.9
					c-42.2-18.3-88.2-25.5-133-34.3c-4.5-0.9-9-1.9-13.2-3.6c-5.2-2.1-10.7-4.8-16.3-5.5c-4.8-0.6-12,0-12,0l-44.3,25.2l1.9,27.7
					c0,0,13.2-13.9,13.2-13.9c6.4,0.6,13.4,1.6,19.8,0.3c3.1-0.6,6.1-2,9.2-2.8c14.6-4.1,29.6,0.9,43.2,6.2
					c12.1,4.8,26.2,8.9,37,16.1c1.9,1.3,5.8,3.7,10.7,6.6l0.1,0.2c2.6,1.4,19.8,10.7,23.7,12.7c-3.9-2-21.1-11.3-23.7-12.7
					l26.1,38.2c0,0,18.3,0,18.3,0c12-0.6,23.7-3.7,34.9-7.8c9.4-3.4,20.3-6.4,25.9-15.4c1.5-2.4,3.7-4.3,5.1-6.7
					C387.5,251.6,387.7,248.6,387,245.8z"/>
				<path class="st3" d="M75.4,189.3c0,0,7.2,6,6.6,13.2c-0.6,7.2-3,17.4-3,17.4l48.7,51.7l25.9,16.8l6.6-37.9L150,215.2
					c0,0,0-3,0-6S97.7,161,75.4,189.3z"/>
				<path class="st3" d="M113.9,69.6c0,0,6-1.2,12-0.6c6,0.6,28.3,3,45.1,32.5c0,0,1.8,4.2,2.4,6.6c0.6,2.4,1.2,4.2,1.8,5.4
					c0.6,1.2,1.2,3.6,1.2,4.8c0,0,0.6,1.2,0.6,3c0,0,6.6,7.2,7.2,15.6s0,9.6-3,13.8c0,0,2.4,8.4,3.6,9.6c1.2,1.2,1.2,1.2,1.2,2.4
					c0,0,0.6,10.2,1.8,15c1.2,4.8,4.2,10.2,4.8,13.2c0.6,3,0,10.8-11.4,14.4c-11.4,3.6-13.8,4.2-19.3,4.8c-5.9,0.7-12,1.5-18.1,1.8
					c-7.9,0.4-15.1-1.3-22.6-3.6c-6.5-2-13.4-3.6-18.7-8c0,0-0.1-0.1-0.1-0.1c-3.2-2.7-6.2-5.7-9.1-8.8c0.2,0.2-0.8,1.1-0.9,1.2
					c-2.1,1.6-6.3,1.2-8.7,0.6c-2.4-0.6-16.5-5.1-14.7-9.3c0,0-13.5-15.3-12.9-17.1C56.8,165.2,113.9,69.6,113.9,69.6z"/>
				<path class="st4" d="M169.4,98.5l-3.1,8.3c0,0-0.6,1.8-0.6,3c0,1.2,0,4.2,0.6,6c0,0,1.2-0.6,3-5.4c1.8-4.8,2.5-4.9,2.8-6.7
					C172.1,103.8,172.4,100.4,169.4,98.5z"/>
				<path class="st4" d="M160.3,86.6C145.8,71.1,130.8,69.5,126,69c-6-0.6-12.1,0.5-12.1,0.5s4.3,1.3,3.1,4.3
					c-1.2,3-5.4,7.2-4.8,24.7s7.2,20.5-4.8,42.1s-15,23.5-18,27.1s-5.4,4.8-10.8,7.2c0,0-7.2,2.4-9,9c0,0-2,3.2,8,7.3
					c0,0,3.8,3.9,4.5,8.8c0.7,4.9-2.3,17.5-2.9,20c-0.6,2.4,4.8,9.6,4.8,9.6S1.5,313.8-6.4,328.3c-7.8,14.4-20.5,12-20.5,12
					c1.2-1.8,6.6-9-0.6-25.3s-9-33.1-8.4-46.3c0.6-13.2,12.6-33.1,21.1-44.5c8.4-11.4,15-24.7,21.7-40.3s12.6-42.1,13.8-51.1
					c1.2-9,7.8-36.1,18-54.1s34.9-17.4,34.9-17.4c1.8-5.4,16.8-12.6,39.1-9.6s37.3,15,41.5,19.3S160.3,86.6,160.3,86.6"/>
				<path class="st4" d="M152.5,116.5l-19.3,5.4c0,0-1.2,0-3,1.8c-1.8,1.8-6,9-6.6,12c0,0,4.8-5.4,9.6-7.2c4.8-1.8,15-4.8,17.4-4.8
					c0,0,1.8,0,2.4-1.8C153.7,120.1,154.9,115.9,152.5,116.5z"/>
				<path class="st5" d="M176.5,118.6c-0.8,0.9-2.4,2.3-5.4,2.7c0,0-1.5,0.3-1.5,1.5"/>
				<path class="st5" d="M130.8,144.2c0,0,15.6-3,18.6-4.2c3-1.2,6-3,4.8-6"/>
				<path class="st3" d="M173.7,160.6c-2.2,0.7-4.6,0.7-6.8-0.2c-4.8-1.8-3.6-8.4-3.6-8.4"/>
				<path class="st3" d="M166.3,115.9c0,0-0.6,3,0,6.6s4.8,8.4,6.6,10.2c2.3,2.3,4.6,4.6,6.9,6.9c1.3,1.3,2.7,2.6,4,3.9
					c1.2,1.1,2.9,2.1,3.4,3.8c0.5,1.7,0.5,3.9-0.6,5.4c-1.8,2.4-3.6,1.8-4.8,1.8c-0.9,0-1.8,0-2.7,0.2c-0.8,0.2-1.5,0.7-2.1,1.3
					c-0.2,0.2-0.4,0.5-0.6,0.7c-0.2,0.3-0.4,0.7-0.6,1"/>
				<path class="st6" d="M165.7,178.5c0.3-0.2,1-0.2,1.3-0.4c0.6-0.2,1.2-0.5,1.7-0.8c1.9-1.1,3.4-2.8,4.6-4.5
					c0.2-0.3,0.4-0.6,0.7-1c4.2-6.6,6-10.8,9.6-7.8c0,0,1.2-3,2.1-2.7s4.2,2.5,0.7,6.8c0,0,2.6-0.5,2.6,3.1s-1.2,6-5.4,7.2
					c-4.2,1.2-10.2,1.8-17.4,1.2c-0.2,0-0.5-0.1-0.6-0.2c-0.1-0.2-0.2-0.3-0.1-0.5C165.5,178.7,165.6,178.6,165.7,178.5z"/>
				<path class="st7" d="M183.7,174.9"/>
				<path class="st8" d="M171.1,177.9c0,0,1.8-0.6,3.6-2.4c1.5-1.5,3.6-2.1,5.5-2.8c2.2-0.8,3.8-2.1,5.4-3.8c0.3-0.3,0.7-1,1.2-1.1"
					/>
				<path class="st3" d="M69.4,183.9c-0.5,1.3,0.4,2.5,1.3,3.3c1.4,1.3,3.1,2.2,4.7,3c1.7,0.9,3.6,1.6,5.4,2.3c1,0.4,2,0.8,3,1
					c1.8,0.4,3.8,0.5,5.7,0.2c1.5-0.2,3.1-0.6,4-2c0.8-1.2,0.9-2.8,0.6-4.2"/>
				<path class="st9" d="M186.1,162.8"/>
				<path class="st9" d="M184.9,160.4"/>
				<path class="st9" d="M184.3,137"/>
				<path class="st9" d="M176.5,118.3"/>
				<path class="st9" d="M180.1,118.3"/>
				<path class="st9" d="M176.9,118.2"/>
				<path class="st9" d="M178.9,119.5"/>
				<path class="st5" d="M175.5,119.6"/>
				<path class="st10" d="M86.9,209.1c0,0,7.2,10.8,7.2,15"/>
				<path class="st10" d="M100.1,207.9c0,0,15.6,9.6,24.7,33.7"/>
				<path class="st10" d="M144.6,217.6c0,0-10.2,10.8-7.8,37.9"/>
				<path class="st10" d="M146.4,244c-0.8,4.5-0.1,8.4,0.6,12.8c0.4,2.6,1,7.1-0.6,9.5"/>
				<path class="st11" d="M37.4,101c-2.5,6.5-3.2,13.6-4.3,20.5c-2.1,13.2-6,26.2-11.4,38.4c7.9-7.5,13.9-16.8,17.6-27
					c0.9,6.2-0.8,12.7-4.7,17.6c6.8-2.6,10.9-9.6,12.6-16.6c1.7-7,1.6-14.4,2.8-21.5c2.1-12.7,8.5-24.7,18-33.5
					c-2.8-0.4-5.5,1.4-7.7,3.3c-7.1,6.1-12.7,13.9-16.1,22.6c0.5-1.4,0.5-3.3,0.8-4.8c0.4-1.6,0.9-3.3,1.5-4.9
					c0.6-1.6,1.3-3.1,2-4.6c0.5-1,2.3-3.1,1.9-4.1C44.2,88,39.5,95.3,37.4,101z"/>
				<path class="st11" d="M75.8,99.4c-2.6,3.9-4.2,8.7-5.3,13.6c-2.5,10.4-3.4,21.3-5,31.9c-1.7,10.7-4.3,21.4-9.7,29.8
					c2.8-1.2,4.7-4.4,6.3-7.5c2.9-5.6,5.5-11.5,7.7-17.7c-0.1,3.6-0.2,7.2-1,10.6s-2.4,6.7-4.8,8.4c3.1,0,5.9-2.6,7.7-5.8
					c1.7-3.3,2.6-7.1,3.4-10.9c-0.3,5.5-1.6,11-3.8,15.8c6.2-4.3,9.7-12.7,12.7-20.7c1.4-3.8,2.8-7.7,3.4-11.8
					c0.7-4.5,0.3-9.1,0.1-13.7s-0.4-9.3,0.7-13.6c1-4.4,3.4-8.5,6.9-10c-4.7-2-9.9,1.6-12.7,6.7c-2.8,5.1-3.8,11.5-4.7,17.6
					c0.4-2.9,0.3-5.9,0.8-8.9c0.5-3,1.1-5.9,1.9-8.8c0.8-2.9,1.9-5.7,3.1-8.4c0.3-0.6,1.6-2.6,1.1-3.3c-0.4-0.6-2.2,0.6-2.7,0.9
					C79.4,94.9,77.4,97,75.8,99.4z"/>
				<path class="st12" d="M92.1,61.1"/>
				<path class="st11" d="M138.2,67.4c-4.9-1.6-9.9-3.2-15-3.8c-5.1-0.7-10.5-0.4-15.2,1.6c0.7-2.5,1.6-4.4,4.2-4.7
					c-6.4-4.8-21.4-0.4-21.4-0.4c2.5-2.7,6.1-4.2,9.7-4.7c3.6-0.5,7.3,0,11,0.6c4.6,0.7,9.2,1.6,13.8,2.7c3.9,0.9,7.9,2.1,11,4.7
					c0.1,0.1-3.5-1.7-7.1-0.5C129,63,134.8,64,138.2,67.4z"/>
				<path class="st11" d="M28.3,227.3c-1.9,4.1-4,8.4-6.8,11c1.5-4.9,2.5-10,3.1-15.2c-2.7,5.7-5.4,11.4-8.6,16.4s-7.2,9.2-11.5,11
					c6.5-10.1,13.2-20.7,16.6-33.5c-4.9,8.9-9.8,17.8-14.8,26.7c-1.2,2.2-2.5,4.5-4,6.3c-1.5,1.8-3.3,3.2-5.1,3.3
					c3-5.6,5.7-11.4,8.2-17.5c4.8-11.5,8.7-23.8,14.9-33.8c4.9-7.8,11.1-13.9,15.1-22.6c-1.2,8.7-4.1,17.2-8.2,24.1
					c2.9-3.9,5.6-8.3,8-13.1c-1,5.9-3.3,11.5-6.3,16c1.6-2.4,3.9-4.2,5.7-6.5c1.8-2.3,3.5-5.2,5.4-7.3c0.1,2.6-1,6.2-1.7,8.7
					c-0.8,3-1.8,6-2.9,8.9C33.4,216.4,30.8,221.9,28.3,227.3z"/>
				<path class="st2" d="M326.9,308.4c-1.7-3.9-2.9-7.8-3.5-12c-0.7-4.6-1.6-9.2-3.9-13.3c-1.7-2.9-3.3-5.9-5-8.8
					c-2.2-3.9-4.4-7.7-6.6-11.6l-9.2-5l-31-16.8c0,0-2.1-1.3-2.8-1.8c-1.4-0.9-3.4-2-5.9-3.2l-0.8,0.2c0,0-7.8,3-21.7,0
					s-18-3-22.9-4.2c-4.8-1.2-30.7-9-32.5-9s-10.2-1.8-13.2,0.6l-12.6,3.6l10.2,39.1l-4.7,25.1l-32-15.5l-24.1-36.1l-4.8-10.8
					l-1.8-2.4l-9.6-0.6l-25.3,9c-0.6,0-6.6,7.8-9.6,10.8c-3,3-9,9.6-15.6,13.2c-6.6,3.6-15,6.6-19.3,10.2c-4.2,3.6-11.4,4.8-18,16.8
					s-10.2,36.7-10.2,55.9h252.1c0,0-1.2-12.6-4.8-22.9c-3.6-10.2-3.6-11.4-4.2-19.9c0,0,21.1-3,30.7-3c6.7,0,13.7,2.2,20.1,3.7
					c9.2,2.2,18.4,4.7,27.5,7.4c3.2,0.9,6.4,1.9,9.6,3c1.1,0.4,2.2,0.8,3.3,1.2c0.7,0.3,2.1,1.3,2.8,0.6
					C328.3,311.4,327.2,309.1,326.9,308.4z"/>
				<path class="st10" d="M88.7,236.2c0,0,8.4-0.6,9.6-1.2"/>
				<path class="st10" d="M59.8,317.4c6.4,4.9,5.7,17.6,5.5,24.7"/>
				<path class="st10" d="M65.2,312c2,1.7,3.1,3.5,3.2,6.2c0.3,7.1-0.6,15.2-3,21.9"/>
				<path class="st10" d="M180.7,315.6c0.9,0,2.4,1.1,3,1.8c1.2,1.4,2.6,2.9,4.2,3.9c1.7,1.1,3.7,1.5,5.4,2.6c1.8,1.3,3,3.2,4.1,5.1
					c2.6,4.4,5.2,8.8,7.8,13.2"/>
				<path class="st10" d="M218.8,240.1c1.2,1.6,1.3,3.8,1.4,5.9c0.6,12.4,4.6,24.3,8.7,36c2.1,5.9,4.5,11.2,4.7,17.5"/>
				<path class="st10" d="M227.3,240.6c-1,0.7-1.1,2.1-1.1,3.2c-0.3,7.1-0.9,14.1-2.6,21.1"/>
				<path class="st10" d="M234.5,245.6c-0.8,4.4-1.1,8.9-1.1,13.4c0,3.1,0.2,6.2-0.3,9.2c-0.3,2-0.9,3.9-1.2,5.9
					c-0.3,2-0.4,4.1,0.3,6"/>
				<path class="st10" d="M245.6,251.6c-5.5,11-11.1,21.9-15.4,33.5"/>
				<path class="st10" d="M252,247.3c-1,2.7-3.2,4.7-4.5,7.2c-0.8,1.6-0.8,3.3-1.2,5c-0.4,1.7-1.1,3.3-1.8,4.8c-1,2-2.1,4-3,6
					c-0.9,2.1-1.5,4.2-2.6,6.3c-1.1,1.9-2.5,3.5-3.9,5.2c-1.7,2.2-3.2,4.7-3.1,7.5c0,0,0,0.4,0.1,1.1"/>
				<path class="st10" d="M264.2,296.4c-0.1-0.8-0.1-1.6-0.1-2.3c-0.9-18.1-1.3-36.3,1.7-54.3"/>
				<path class="st10" d="M281.9,248.7c2.1,9.5,1.7,19.5-1.2,28.7c-1,3.2-2.3,6.3-4.4,8.9s-4.9,4.7-8.2,5.4"/>
				<path class="st8" d="M171.6,121.2"/>
				<path class="st2" d="M165.1,232.6c0,0,6,1.8,8.4,1.8c2,0,3.9,0.1,5.9-0.1c1.7-0.2,4.6-0.5,5.5-2.3c0,0.1-3.8-1.6-4.2-1.8
					c-2.4-1.1-4.8-2.3-6.9-3.8c-2.2-1.6-3.5-3.8-5.5-5.6c-1.3-1.1-2.5-2.3-3.8-3.4l-4.8-0.6l-1.2,9.6l4.2,6H165.1z"/>
				<g>
					<path class="st2" d="M191.6,252.5c-0.9-1.7-2.3-3-3.8-4.2c-2.9-2.4-6-4.8-9-7.2c-3-2.3-6.1-4.8-9.4-6.7
						c-2.2-1.3-4.4-2.5-6.7-3.6c-8.3,6.5-12.6,6.6-12.7,6.6c0.2,0.6,0.4,1.2,0.7,1.8c1.8,3.6,3.6,13.2,3.6,21.1
						c0,7.8-2.4,22.9-2.4,22.9v0.6l2.4,9.6c0,0,15.3,7.9,15.4,7.9c-1-0.5,0.1-3.9,0.3-4.6c0.5-1.9,1.1-3.7,1.8-5.5
						c1.9-4.7,4-9.5,6.8-13.7c3-4.5,6.1-9,9.3-13.4c1.4-1.9,2.8-3.8,3.8-5.9C192.6,256.1,192.6,254.6,191.6,252.5z"/>
					<path class="st2" d="M160.9,218.8c3-4.2,11.4,6.6,11.4,6.6c-0.6-1.2-2.4-3-6.6-7.2s-9-3-12-3s-3.6-2.9-3.6-2.9
						c0,0.7-1.2,11.3-1.2,14.3c0,2.6,0,7.3,1.1,10.8c0.1,0,4.4-0.1,12.7-6.6C162.1,227.8,157.9,223,160.9,218.8z"/>
				</g>
				<path class="st2" d="M79.8,216.7c1.2,1.6,3,2.8,4.7,3.8c2.1,1.3,4.4,2.3,6.7,3c2.6,0.8,6.5,0.5,8.7,2c1.2,0.8,2,3.2,2.7,4.5
					c1.2,2.1,2.3,4.2,3.5,6.3c2.4,4.2,15,13.8,18.6,16.8c3.6,3,45.1,46.3,54.1,60.2c0,0-16.8-16.2-34.3-21.7
					c-17.4-5.4-39.7-24.7-41.5-26.5c-1.8-1.8-4.2-2.4-3-9c1.2-6.6,3-12.6,2.4-16.8c-0.3-2.3-1.3-4.5-2.3-6.7
					c-0.9-1.9-1.3-4.6-3.5-5.2c-1.9-0.6-4.4,0-6.2,0.5c-4,1-4.3,4.9-6.2,8.1c-2.1,3.6-5.2,8.1-9.4,9.3c-6.6,1.8-6.6,4.8-11.4,2.4
					c-4.8-2.4-7.8-3.6-7.8-4.2c1.7-2.5,3.4-5,5-7.6c1.3-2.1,2.6-4.3,3.8-6.5c1.1-2.1,1.4-5,3-6.7c0.9-1,2.5-1.9,3.6-2.6
					C72.1,219.2,78.4,214.8,79.8,216.7z"/>
				<path class="st13" d="M166.6,318.2c0.9-1.1,2.8-1,4.1-0.6c1.7,0.4,3.1,1.8,4,3.2c0.6,1,1.1,2.2,1.3,3.4c0.1,0.6,0.1,1.1-0.2,1.7
					c-0.7,1.8-3,2-4.6,1.6c-2.1-0.5-3.7-2-4.4-3.9c-0.5-1.3-0.7-2.7-0.6-4.1C166.1,318.9,166.3,318.5,166.6,318.2z"/>
				<path class="st10" d="M338.1,270.7c0,0-16.3-0.6-30.1-7.8"/>
				<path class="st14" d="M230.1,285.3"/>
				<path class="st15" d="M244.7,286.3"/>
				<path class="st10" d="M236.2,299c2.4-1.7,4.8-3.3,7.1-5c2.2-1.6,4.5-3,6.7-4.6c2.1-1.6,4.7-3.3,5.4-6"/>
				<path class="st3" d="M172.1,161"/>
				<polygon class="st16" points="119.6,203.4 117.8,210.1 136.5,213.7 138.3,207.7 				"/>
			</g>
		</g>
	</g>
</g>
</svg>
