<svg id="레이어_1" data-name="레이어 1" xmlns="http://www.w3.org/2000/svg" viewBox="0 0 70.71 65.06"><defs><style>.cls-1{fill:#d64141;stroke:#111;stroke-miterlimit:10;}.cls-2{fill:#111;}</style></defs><title>menu</title><path class="cls-1" d="M52.87,1.62c-11.58,0-15.73,11.11-15.73,11.11S33,1.62,21.42,1.62s-23.3,13.9-15.73,30c8.56,18.22,31.45,30,31.45,30S60,49.84,68.6,31.62C76.17,15.52,64.45,1.62,52.87,1.62Z" transform="translate(-0.79 -1.12)"/><path class="cls-1" d="M50.87,5.62c-11.58,0-15.73,11.11-15.73,11.11S31,5.62,19.42,5.62s-23.3,13.9-15.73,30c8.56,18.22,31.45,30,31.45,30S58,53.84,66.6,35.62C74.17,19.52,62.45,5.62,50.87,5.62Z" transform="translate(-0.79 -1.12)"/><path class="cls-2" d="M24.74,40.23c0,.18-.08.27-.25.27H21.37c-.17,0-.25-.1-.25-.31,0-.59,0-1.48.06-2.66s.07-2.07.07-2.67c0-.17,0-.26-.08-.27A26.25,26.25,0,0,0,20,37.31l-1.26,3.12a.41.41,0,0,1-.22.24h-.35c-.31,0-.49-.05-.55-.17-.31-.65-.73-1.58-1.25-2.81s-1-2.25-1.23-2.83a.32.32,0,0,0-.08-.09A.36.36,0,0,0,15,35c0,.58,0,1.44,0,2.59s0,2,0,2.58c0,.21-.08.31-.24.31H11.89c-.12,0-.19,0-.22-.06a.46.46,0,0,1,0-.2q0-1,.09-2.88c.06-1.28.09-2.23.09-2.87s0-2-.09-3.83c0-.48,0-1.21-.08-2.17v-.15c0-.11.12-.17.37-.17l1.45,0,1.45,0c.07,0,.16.12.28.36l2.56,5.64c.18.38.34.57.46.57s.2-.22.41-.66q.89-1.85,2.63-5.56c.1-.23.21-.35.33-.35l.76,0,.78,0c.15,0,.37,0,.68-.05s.52,0,.67,0,.26.07.26.21c0,.69,0,1.72-.07,3.1s-.08,2.4-.08,3.1,0,1.59.08,2.87S24.74,39.59,24.74,40.23Z" transform="translate(-0.79 -1.12)"/><path class="cls-2" d="M34.83,37.76a10.59,10.59,0,0,1-.14,1.39,4.88,4.88,0,0,1-.29,1.31.32.32,0,0,1-.29.17l-.26,0c-.43-.06-1.68-.08-3.74-.08h-4c-.19,0-.29-.09-.29-.26,0-.65,0-1.64.11-3s.11-2.31.11-3,0-1.91-.11-3.74c0-.47-.05-1.17-.09-2.1v-.12c0-.14.06-.2.22-.2l1.95,0c.87,0,1.53,0,2,0s1.07,0,1.93,0l1.94,0c.3,0,.48.11.52.34s.08.54.14,1.23.09,1.09.09,1.24-.06.18-.17.18H34.2c-1.56-.13-3-.2-4.2-.2-.31,0-.5.08-.57.22a2.85,2.85,0,0,0,0,.68,1.22,1.22,0,0,0,.17.79.76.76,0,0,0,.57.17l.35,0h.42c.74,0,1.48,0,2.24-.06l.48,0,.48,0a.18.18,0,0,1,.21.2,10.65,10.65,0,0,0-.16,1.35,13.13,13.13,0,0,0-.07,1.4c0,.12-.09.18-.26.18L33,35.69c-.33,0-1.09,0-2.28,0h-.93c-.24,0-.38.06-.43.17v.55a3,3,0,0,0,.08.86c.1.22.48.35,1.13.4h1.28c.31,0,.77,0,1.39-.09s1.07-.08,1.37-.08C34.77,37.45,34.83,37.55,34.83,37.76Z" transform="translate(-0.79 -1.12)"/><path class="cls-2" d="M47.22,28.44c0,.67,0,1.67-.08,3s-.08,2.34-.08,3v5.79c0,.16-.09.24-.26.24s-.35,0-.63,0h-.64l-.69,0c-.3,0-.53,0-.68,0s-.24-.09-.38-.29q-.63-.86-2.85-3.78c-.4-.54-1-1.34-1.85-2.4a.3.3,0,0,0-.13-.11.27.27,0,0,0-.07.19q0,1,.06,3.06T39,40.19c0,.21-.08.31-.24.31h-3a.24.24,0,0,1-.26-.27c0-.64,0-1.59.1-2.87s.09-2.23.09-2.87,0-1.69-.08-3-.09-2.34-.09-3c0-.13.12-.2.34-.2s.76,0,1.26-.07l.7-.11a4.41,4.41,0,0,1,.69-.08c.07,0,.18.1.32.3l3.28,4.49,1.33,1.78c.15.18.27.27.38.27s.11-.23.11-.69,0-1.54-.1-2.77-.1-2.17-.1-2.79c0-.22.06-.33.19-.33.35,0,.88,0,1.59,0s1.24,0,1.59,0C47.17,28.17,47.22,28.26,47.22,28.44Z" transform="translate(-0.79 -1.12)"/><path class="cls-2" d="M58.81,36.18a6.13,6.13,0,0,1-.53,3.06q-1,1.5-4.92,1.5a10.55,10.55,0,0,1-2.73-.28,2.75,2.75,0,0,1-2-1.68,7,7,0,0,1-.22-2.16c0-.24,0-.6,0-1.07s0-.83,0-1.06c0-.68,0-1.7-.1-3.06s-.1-2.38-.1-3.05c0-.14.07-.21.19-.21.36,0,.9,0,1.62,0s1.26,0,1.62,0c.15,0,.22.07.22.2,0,.77,0,1.93-.07,3.47s-.08,2.71-.08,3.48a4.06,4.06,0,0,0,.29,1.86,1.73,1.73,0,0,0,1.62.66,1.57,1.57,0,0,0,1.8-1.75c0-.85,0-2.12-.06-3.82s-.06-3-.06-3.82c0-.18.07-.28.22-.28.34,0,.87,0,1.56,0s1.22,0,1.57,0c.17,0,.25.07.25.21,0,.67,0,1.69-.08,3.05s-.09,2.38-.09,3.06c0,.18,0,.47,0,.84S58.81,36,58.81,36.18Z" transform="translate(-0.79 -1.12)"/></svg>