<?xml version="1.0" encoding="utf-8"?>
<!-- Generator: Adobe Illustrator 22.1.0, SVG Export Plug-In . SVG Version: 6.00 Build 0)  -->
<svg version="1.1" id="news_mask" xmlns="http://www.w3.org/2000/svg" xmlns:xlink="http://www.w3.org/1999/xlink" x="0px"
	 y="0px" viewBox="0 0 382 382" style="enable-background:new 0 0 382 382;" xml:space="preserve">
<path d="M373.7,0c0,0,0.5,11.1-8.3,11.1c-8.8,0-8.3-11.1-8.3-11.1H346c0,0,1.6,11.1-8.3,11.1c-9.9,0-8.3-11.1-8.3-11.1h-11.1
	c0,0,0.9,11.1-8.3,11.1c-9.2,0-8.3-11.1-8.3-11.1h-11.1c0,0-0.1,11.1-8.3,11.1C274.2,11.1,274,0,274,0H263c0,0-0.3,11.1-8.3,11.1
	c-8,0-8.3-11.1-8.3-11.1h-8.3c0,0,0.7,11.1-8.3,11.1c-9,0-8.3-11.1-8.3-11.1h-11.1c0,0,0.1,11.1-8.3,11.1c-8.4,0-8.3-11.1-8.3-11.1
	h-11.1c0,0-0.3,11.1-8.3,11.1c-8,0-8.3-11.1-8.3-11.1h-8.3c0,0-1,11.1-8.3,11.1c-7.3,0-8.3-11.1-8.3-11.1h-11.1
	c0,0,0.7,11.1-8.3,11.1c-9,0-8.3-11.1-8.3-11.1h-11.1c0,0-0.3,11.1-8.3,11.1c-8,0-8.3-11.1-8.3-11.1H74.7c0,0-0.3,11.1-8.3,11.1
	c-8,0-8.3-11.1-8.3-11.1h-8.3c0,0-0.3,11.1-8.3,11.1c-8,0-8.3-11.1-8.3-11.1H22.1c0,0,0.3,11.1-8.3,11.1C5.2,11.1,5.5,0,5.5,0H0
	v11.1v8.3v2.8c0,0,11.1,0,11.1,8.3c0,8.3-11.1,8.3-11.1,8.3v11.1c0,0,11.1,0.2,11.1,8.3c0,8.1-11.1,8.3-11.1,8.3v8.3
	c0,0,11.1,0.9,11.1,8.3c0,7.4-11.1,8.3-11.1,8.3v11.1c0,0,11.1,1.6,11.1,8.3C11.1,117.4,0,119,0,119v11.1c0,0,11.1,0.2,11.1,8.3
	c0,8.1-11.1,8.3-11.1,8.3v11.1c0,0,11.1-0.2,11.1,8.3c0,8.5-11.1,8.3-11.1,8.3v8.3c0,0,11.1-0.3,11.1,8.3c0,8.6-11.1,8.3-11.1,8.3
	v11.1c0,0,11.1,1.1,11.1,8.3C11.1,225.9,0,227,0,227v11.1c0,0,11.1-0.7,11.1,8.3c0,9-11.1,8.3-11.1,8.3v11.1c0,0,11.1-0.5,11.1,8.3
	c0,8.8-11.1,8.3-11.1,8.3v8.3c0,0,11.1-0.2,11.1,8.3c0,8.5-11.1,8.3-11.1,8.3v11.1c0,0,11.1,0.1,11.1,8.3c0,8.2-11.1,8.3-11.1,8.3
	V346c0,0,11.1,0.7,11.1,8.3c0,7.6-11.1,8.3-11.1,8.3v5.5V382h5.5c0,0-0.3-11.1,8.3-11.1c8.6,0,8.3,11.1,8.3,11.1h11.1
	c0,0,0.3-11.1,8.3-11.1c8,0,8.3,11.1,8.3,11.1h8.3c0,0,0.3-11.1,8.3-11.1c8,0,8.3,11.1,8.3,11.1h11.1c0,0,0.3-11.1,8.3-11.1
	c8,0,8.3,11.1,8.3,11.1h11.1c0,0-0.7-11.1,8.3-11.1c9,0,8.3,11.1,8.3,11.1h11.1c0,0,1-11.1,8.3-11.1c7.3,0,8.3,11.1,8.3,11.1h8.3
	c0,0,0.3-11.1,8.3-11.1c8,0,8.3,11.1,8.3,11.1h11.1c0,0-0.1-11.1,8.3-11.1c8.4,0,8.3,11.1,8.3,11.1h11.1c0,0-0.7-11.1,8.3-11.1
	c9,0,8.3,11.1,8.3,11.1h8.3c0,0,0.3-11.1,8.3-11.1c8,0,8.3,11.1,8.3,11.1H274c0,0,0.1-11.1,8.3-11.1c8.2,0,8.3,11.1,8.3,11.1h11.1
	c0,0-0.9-11.1,8.3-11.1c9.2,0,8.3,11.1,8.3,11.1h11.1c0,0-1.6-11.1,8.3-11.1c9.9,0,8.3,11.1,8.3,11.1h11.1c0,0-0.5-11.1,8.3-11.1
	c8.8,0,8.3,11.1,8.3,11.1h8.3v-13.8v-5.5c0,0-11.1-0.7-11.1-8.3c0-7.6,11.1-8.3,11.1-8.3v-11.1c0,0-11.1-0.1-11.1-8.3
	c0-8.2,11.1-8.3,11.1-8.3v-11.1c0,0-11.1,0.2-11.1-8.3c0-8.5,11.1-8.3,11.1-8.3v-8.3c0,0-11.1,0.5-11.1-8.3c0-8.8,11.1-8.3,11.1-8.3
	v-11.1c0,0-11.1,0.7-11.1-8.3c0-9,11.1-8.3,11.1-8.3V227c0,0-11.1-1.1-11.1-8.3c0-7.2,11.1-8.3,11.1-8.3v-11.1
	c0,0-11.1,0.3-11.1-8.3c0-8.6,11.1-8.3,11.1-8.3v-8.3c0,0-11.1,0.2-11.1-8.3c0-8.5,11.1-8.3,11.1-8.3v-11.1c0,0-11.1-0.2-11.1-8.3
	c0-8.1,11.1-8.3,11.1-8.3V119c0,0-11.1-1.6-11.1-8.3c0-6.7,11.1-8.3,11.1-8.3V91.3c0,0-11.1-0.9-11.1-8.3c0-7.4,11.1-8.3,11.1-8.3
	v-8.3c0,0-11.1-0.2-11.1-8.3c0-8.1,11.1-8.3,11.1-8.3V38.8c0,0-11.1,0-11.1-8.3c0-8.3,11.1-8.3,11.1-8.3v-2.8v-8.3V0H373.7z"/>
</svg>
