<svg id="레이어_1" data-name="레이어 1" xmlns="http://www.w3.org/2000/svg" viewBox="0 0 148.99 131.21"><defs><style>.cls-1{fill:#1b9cc9;}.cls-2{fill:#c1ecf7;}.cls-3{fill:#9eddf1;}.cls-4{fill:#7dcfed;}.cls-5{fill:#5ec2e8;}</style></defs><title>con_5</title><path class="cls-1" d="M147.92,35.65a17.59,17.59,0,0,0-2.22-3.24l-9.11-10.76L127,10.33C124.17,7,122,2.91,116.77.27a50.87,50.87,0,0,0-8.28-.14c-2.83.09-5.68,0-8.51,0H49.81C44.75.13,39.69.07,34.63,0,31.45,0,30,.83,28,3.18l-4.4,5.2-8.8,10.4L6,29.22C4.36,31.14,2.26,32.7,1.1,35a10.66,10.66,0,0,0-.62,7.92c1,3.22,3.29,5.31,5.32,7.84l3.55,4.41,9.08,11.3L40.59,94l19.93,24.79c2.45,3,4.85,6.12,7.31,9.13a8.75,8.75,0,0,0,7.1,3.28c3.45-.2,5.12-2.78,7.11-5.25l5.22-6.5,18.92-23.53,21.57-26.84,16.08-20c1.69-2.1,3.86-4.13,4.73-6.72A8.35,8.35,0,0,0,147.92,35.65Z"/><polygon class="cls-2" points="99.02 42.68 49.31 42.66 74.13 118.46 99.02 42.68"/><polygon class="cls-2" points="45.17 42.66 3.19 42.64 71.49 127.68 45.17 42.66"/><polygon class="cls-2" points="103.16 42.69 145.15 42.7 76.76 127.68 103.16 42.69"/><polygon class="cls-2" points="97.89 37.41 51.1 37.39 66.28 3.13 82.75 3.14 97.89 37.41"/><polygon class="cls-2" points="146 37.43 102.5 37.41 88.02 3.14 117.02 3.15 146 37.43"/><polygon class="cls-3" points="3 37.37 46.49 37.39 61.01 3.13 32.01 3.12 3 37.37"/><polygon class="cls-4" points="49.31 42.66 74.13 118.46 99.02 42.68 49.31 42.66"/><polygon class="cls-5" points="3.19 42.64 71.49 127.68 45.17 42.66 3.19 42.64"/><polygon class="cls-5" points="76.76 127.68 145.15 42.7 103.16 42.69 76.76 127.68"/><polygon class="cls-2" points="97.89 37.41 82.75 3.14 66.28 3.13 51.1 37.39 97.89 37.41"/><polygon class="cls-3" points="146 37.43 117.02 3.15 88.02 3.14 102.5 37.41 146 37.43"/></svg>