<svg id="레이어_1" data-name="레이어 1" xmlns="http://www.w3.org/2000/svg" viewBox="0 0 243.91 132.74"><defs><style>.cls-1,.cls-5{fill:#efcc3a;}.cls-2{fill:#d19b22;}.cls-3,.cls-6{fill:#f2c238;}.cls-4,.cls-7{fill:#e2af2d;}.cls-5,.cls-6,.cls-7{stroke:#d19b22;stroke-linecap:round;stroke-linejoin:round;stroke-width:2.57px;}</style></defs><title>con_4</title><path class="cls-1" d="M11.42,68.52,110.2,35.07,155,41.48,66.83,76.91l-.11,0L28.21,97Z"/><path class="cls-2" d="M110.32,36.39l39.78,5.68L66.35,75.71l-.22.11L28.69,95.28l-15.36-26,97-32.84m-.24-2.63L9.5,67.81,27.72,98.69,67.31,78.1,160,40.88l-49.89-7.12Z"/><polygon class="cls-3" points="1.59 104.01 10.46 69.27 66.87 78.54 99.04 97.24 72.53 117.12 1.59 104.01"/><path class="cls-2" d="M11.41,70.73l55,9L96.71,97.38l-24.5,18.37L3.17,103l8.24-32.27M9.5,67.81,0,105l72.86,13.46,28.5-21.38-34-19.8L9.5,67.81Z"/><polygon class="cls-4" points="68.72 78.92 159.1 42.62 167.94 75 73.9 116.62 68.72 78.92"/><path class="cls-2" d="M158.24,44.35l8.16,29.92L74.94,114.75l-4.8-35,88.1-35.39M160,40.88,67.31,78.1l5.55,40.39,96.61-42.76L160,40.88Z"/><path class="cls-1" d="M84.57,81.43l111.2-40.82,37.12,3.71-34.84,50-53.28,6.27a1.16,1.16,0,0,0-.32.08l-41.68,16.21Z"/><path class="cls-2" d="M195.93,41.92l34.65,3.46L197.32,93.1l-52.7,6.2a2.65,2.65,0,0,0-.63.16l-40.6,15.79-17-33.11L195.93,41.92m-.33-2.62L82.76,80.72l19.4,37.77,42.76-16.63,53.85-6.34L235.2,43.26l-39.6-4Z"/><polygon class="cls-4" points="128.44 113.54 143.86 92.28 234.36 45.15 242.42 75.91 148.91 131.17 128.44 113.54"/><path class="cls-2" d="M233.53,47l7.4,28.26-91.87,54.3-18.88-16.26,14.55-20L233.53,47m1.67-3.77-92.2,48-16.29,22.46,22.07,19,95.13-56.22L235.2,43.26Z"/><polygon class="cls-5" points="197.98 7.62 148.09 1.29 47.52 35.34 65.73 72.56 104.53 43.26 163.93 56.72 197.98 7.62"/><polygon class="cls-6" points="110.87 86.02 38.01 72.56 47.52 35.34 105.32 41.67 110.87 86.02"/><polygon class="cls-7" points="197.98 7.62 105.32 41.67 110.87 86.02 203.52 40.88 197.98 7.62"/><polygon class="cls-3" points="74.45 117.7 83.7 82.19 141.85 92.39 147.25 131.15 74.45 117.7"/><path class="cls-2" d="M84.65,83.67l56.06,9.82,5,36.07L76,116.69l8.61-33m-1.89-3-9.9,38,75.92,14L143,91.28,82.76,80.72Z"/></svg>