<svg id="레이어_1" data-name="레이어 1" xmlns="http://www.w3.org/2000/svg" viewBox="0 0 58.26 42.85"><defs><style>.cls-1{fill:#cdc3db;}</style></defs><title>m_arrow_3</title><path class="cls-1" d="M3.79,40.59a1,1,0,0,1-.58-1.81L8,35.3A1,1,0,0,1,9.2,36.93L4.38,40.41A1,1,0,0,1,3.79,40.59Zm9.69-7a1,1,0,0,1-.81-.41,1,1,0,0,1,.22-1.4l4.87-3.51a1,1,0,0,1,1.39.23,1,1,0,0,1-.22,1.39l-4.87,3.52A1,1,0,0,1,13.48,33.6Zm9.73-7a1,1,0,0,1-.81-.41,1,1,0,0,1,.22-1.4l4.87-3.51a1,1,0,0,1,1.17,1.62l-4.87,3.51A1,1,0,0,1,23.21,26.58Zm9.73-7a1,1,0,0,1-.81-.42,1,1,0,0,1,.22-1.39l4.87-3.52a1,1,0,0,1,1.17,1.63l-4.87,3.51A1,1,0,0,1,32.94,19.56Zm9.73-7a1,1,0,0,1-.81-.41,1,1,0,0,1,.22-1.4L47,7.21a1,1,0,0,1,1.39.23,1,1,0,0,1-.22,1.39l-4.87,3.52A1,1,0,0,1,42.67,12.53Zm9.73-7a1,1,0,0,1-.59-1.81L56.68.19a1,1,0,0,1,1.17,1.62L53,5.32A1,1,0,0,1,52.4,5.51Z"/><polygon class="cls-1" points="19.43 37.84 7.88 24.41 0 42.85 19.43 37.84"/></svg>