<svg id="레이어_1" data-name="레이어 1" xmlns="http://www.w3.org/2000/svg" viewBox="0 0 55.77 39.93"><defs><style>.cls-1{fill:#e7c8d4;}</style></defs><title>m_arrow_2</title><path class="cls-1" d="M52.31,3.73a1,1,0,0,1-.81-.43,1,1,0,0,1,.24-1.39L54.19.18a1,1,0,0,1,1.39.24,1,1,0,0,1-.24,1.4L52.89,3.55A1,1,0,0,1,52.31,3.73Z"/><path class="cls-1" d="M11.48,32.51a1,1,0,0,1-.82-.43,1,1,0,0,1,.24-1.39L16,27.09a1,1,0,0,1,1.39.24,1,1,0,0,1-.24,1.4l-5.1,3.59A1,1,0,0,1,11.48,32.51Zm10.21-7.2a1,1,0,0,1-.58-1.82l5.11-3.59a1,1,0,0,1,1.15,1.63l-5.11,3.6A1,1,0,0,1,21.69,25.31ZM31.9,18.12a1,1,0,0,1-.82-.43,1,1,0,0,1,.24-1.39l5.1-3.6a1,1,0,1,1,1.16,1.64l-5.11,3.6A1,1,0,0,1,31.9,18.12Zm10.21-7.2a1,1,0,0,1-.82-.42,1,1,0,0,1,.24-1.39l5.1-3.6a1,1,0,0,1,1.4.24,1,1,0,0,1-.24,1.39l-5.11,3.6A1,1,0,0,1,42.11,10.92Z"/><path class="cls-1" d="M3.92,37.83a1,1,0,0,1-.81-.42A1,1,0,0,1,3.35,36L5.8,34.29A1,1,0,1,1,7,35.92L4.5,37.65A1,1,0,0,1,3.92,37.83Z"/><polygon class="cls-1" points="19.61 35.72 8.63 21.82 0 39.93 19.61 35.72"/></svg>