<?xml version="1.0" encoding="utf-8"?>
<!-- Generator: Adobe Illustrator 14.0.0, SVG Export Plug-In . SVG Version: 6.00 Build 43363)  -->
<!DOCTYPE svg PUBLIC "-//W3C//DTD SVG 1.1//EN" "http://www.w3.org/Graphics/SVG/1.1/DTD/svg11.dtd">
<svg version="1.1" id="Layer_1" xmlns="http://www.w3.org/2000/svg" xmlns:xlink="http://www.w3.org/1999/xlink" x="0px" y="0px"
	 width="1920px" height="900px" viewBox="0 0 1920 900" enable-background="new 0 0 1920 900" xml:space="preserve">
<g>
	<path fill-rule="evenodd" clip-rule="evenodd" fill="#FFFFFF" d="M450-91c36.333,0,72.667,0,109,0
		c29.396,259.266,59.339,518.008,88,778c31.068-258.273,59.09-519.566,90-778c39.667,0,79.333,0,119,0c0,277.926,0,557.638,0,839
		c0,39.761-4.854,82.248,1,118c5.294,32.333,31.733,57.588,68,57c36.916-0.598,61.207-25.361,67-58c6.063-34.162,1-81.257,1-119
		c0.001-276.858-0.001-562.76,0-837c160.002,0,319.996,0,480,0c-0.665,16.002,1.331,34.664-1,49c-34.666,0-69.334,0-104,0
		c0,12.333,0,24.667,0,37c79.667,0.667,162-1.333,240,1c0,330.687,0,661.32,0,992c-211.244,0-429.486,0-641,0
		c-19.788,0-39.517,2.445-58,1c-66.237-5.18-113.437-51.209-119-115c-2.905-33.308,0-68.748,0-103c0-242.72,0.832-484.651-1-725
		c-35.154,314.839-71.703,628.303-108,942c-22.001-0.666-46.665,1.332-67-1c-33.605-288.065-65.039-578.29-99-866
		c0,289.01,0,577.997,0,867c-21.334-0.666-45.332,1.332-65-1C450,627.671,450,268.328,450-91z M1060-42
		c-2.329,10.338-0.337,24.997-1,37c29.667,0,59.333,0,89,0c0-12.333,0-24.667,0-37C1118.667-42,1089.333-42,1060-42z M1215-42
		c-2.329,10.338-0.337,24.997-1,37c29.333,0,58.667,0,88,0c0-12.333,0-24.667,0-37C1273-42,1244-42,1215-42z"/>
</g>
</svg>
