<?xml version="1.0" encoding="utf-8"?>
<!-- Generator: Adobe Illustrator 22.1.0, SVG Export Plug-In . SVG Version: 6.00 Build 0)  -->
<svg version="1.1" id="레이어_1" xmlns="http://www.w3.org/2000/svg" xmlns:xlink="http://www.w3.org/1999/xlink" x="0px"
	 y="0px" viewBox="0 0 80 80" style="enable-background:new 0 0 80 80;" xml:space="preserve">
<style type="text/css">
	.st0{fill:#311640;}
</style>
<g>
	<g>
		<g>
			<g>
				<path class="st0" d="M80,40c0.1,22-17.9,40-40,40C18,80,0,62,0,40C0,18,18,0,40,0C62,0,79.9,17.9,80,40z M45.9,56.7
					C51,56,56.1,49.6,56.4,43.6c0.2-3.7-0.7-7.1-2.9-10c-3-4.1-7.2-6.3-12.5-6.5c0-1.7,0-3.2,0-5c-5.9,3.5-11.6,6.8-17.4,10.2
					C29.5,35.7,35.1,39,41,42.4c0-1.9,0-3.4,0-4.9c4.6,0,8.2,2.6,9.7,6.8C52.3,48.8,50.8,52.9,45.9,56.7z"/>
			</g>
		</g>
	</g>
</g>
</svg>
