<svg id="레이어_1" data-name="레이어 1" xmlns="http://www.w3.org/2000/svg" xmlns:xlink="http://www.w3.org/1999/xlink" viewBox="0 0 279.99 156.14"><defs><style>.cls-1{fill:url(#무제_그라디언트_73);}.cls-2{fill:url(#무제_그라디언트_73-2);}.cls-3{fill:#d4b3e2;}.cls-4{fill:#111;}.cls-5{fill:#eccbe1;}</style><linearGradient id="무제_그라디언트_73" x1="116.35" y1="58.24" x2="116.35" y2="154.18" gradientUnits="userSpaceOnUse"><stop offset="0" stop-color="#e5c5d1"/><stop offset="1" stop-color="#f5e0e8"/></linearGradient><linearGradient id="무제_그라디언트_73-2" x1="197.88" y1="63.14" x2="197.88" y2="159.07" xlink:href="#무제_그라디언트_73"/></defs><title>cloud_1</title><polygon class="cls-1" points="225.25 151.25 86.97 151.25 7.46 71.16 145.74 71.16 225.25 151.25"/><polygon class="cls-2" points="279.99 156.14 195.29 156.14 115.78 76.06 200.47 76.06 279.99 156.14"/><path class="cls-3" d="M118.25,78.07a4.78,4.78,0,1,1,0-9.55h23.69l-1-.54a18,18,0,1,1,20.3-29.44l.29.25.16-.34A11.46,11.46,0,0,1,172,32a11.31,11.31,0,0,1,11.24,9.59l.06.38.35-.16a14.73,14.73,0,0,1,6.4-1.45A14.9,14.9,0,0,1,197.74,68l-.87.53h5a4.78,4.78,0,1,1,0,9.55Z"/><path class="cls-4" d="M172,32.27a11,11,0,0,1,11,9.35l.12.76.69-.33a14.61,14.61,0,0,1,13.86,25.69l-1.75,1.07h6.06a4.49,4.49,0,1,1,0,9H118.25a4.49,4.49,0,1,1,0-9h24.83l-2-1.08a17.7,17.7,0,1,1,20-29l.57.49.32-.68a11.16,11.16,0,0,1,10-6.3m0-.58a11.67,11.67,0,0,0-10.53,6.64,18.27,18.27,0,1,0-20.62,29.9H118.25a5.07,5.07,0,1,0,0,10.13H201.9a5.07,5.07,0,0,0,0-10.13h-4A15.19,15.19,0,0,0,190,40.06a15,15,0,0,0-6.52,1.47A11.68,11.68,0,0,0,172,31.69Z"/><path class="cls-5" d="M8.28,71.16a8,8,0,1,1,0-16H20.72l-.28-.44a11.92,11.92,0,0,1,9.15-18.26h.21l.05-.2a25.82,25.82,0,0,1,25-19.43,26.66,26.66,0,0,1,4.69.43l.2,0,.1-.17A34.13,34.13,0,0,1,122.12,25l0,.18.19,0a19.74,19.74,0,0,1,15,29.51l-.25.43h6.67a8,8,0,1,1,0,16Z"/><path class="cls-4" d="M89.31.58a34,34,0,0,1,32.53,24.53l.11.37.38,0A19.46,19.46,0,0,1,137.09,54.6l-.5.87h7.17a7.7,7.7,0,1,1,0,15.4H8.28a7.7,7.7,0,0,1,0-15.4h13l-.57-.89a11.62,11.62,0,0,1,8.93-17.81l.41,0,.11-.4a25.53,25.53,0,0,1,29.4-18.78l.39.07.21-.35A34,34,0,0,1,89.31.58m0-.58A34.4,34.4,0,0,0,59.63,17a26.45,26.45,0,0,0-4.74-.44A26.15,26.15,0,0,0,29.57,36.2,12.19,12.19,0,0,0,20.2,54.89H8.28A8.3,8.3,0,0,0,0,63.17H0a8.3,8.3,0,0,0,8.28,8.28H143.76A8.3,8.3,0,0,0,152,63.17h0a8.3,8.3,0,0,0-8.28-8.28h-6.17A20,20,0,0,0,122.39,25,34.42,34.42,0,0,0,89.31,0Z"/></svg>