<svg id="레이어_1" data-name="레이어 1" xmlns="http://www.w3.org/2000/svg" viewBox="0 0 70.71 65.06"><defs><style>.cls-1{fill:#d64141;stroke:#111;stroke-miterlimit:10;}.cls-2{fill:#111;}</style></defs><title>close</title><path class="cls-1" d="M52.08.5C40.5.5,36.36,11.61,36.36,11.61S32.21.5,20.63.5-2.67,14.39,4.9,30.5c8.57,18.22,31.46,30,31.46,30s22.89-11.78,31.45-30C75.38,14.39,63.66.5,52.08.5Z"/><path class="cls-1" d="M50.08,4.5C38.5,4.5,34.36,15.61,34.36,15.61S30.21,4.5,18.63,4.5-4.67,18.39,2.9,34.5c8.57,18.22,31.46,30,31.46,30s22.89-11.78,31.45-30C73.38,18.39,61.66,4.5,50.08,4.5Z"/><path class="cls-2" d="M20.11,37.39a.68.68,0,0,1-.18.37,5.34,5.34,0,0,1-4.3,1.92,5.73,5.73,0,0,1-4.45-1.87,6.54,6.54,0,0,1-1.66-4.57,6.62,6.62,0,0,1,1.63-4.53,5.44,5.44,0,0,1,4.31-2,5.81,5.81,0,0,1,4.47,1.75.54.54,0,0,1,.17.35,5.47,5.47,0,0,1-.61,1.24,6.54,6.54,0,0,1-.77,1.2.21.21,0,0,1-.17.07,2.34,2.34,0,0,1-.44-.35,5,5,0,0,0-.93-.66A3.12,3.12,0,0,0,15.74,30a2.52,2.52,0,0,0-2.07,1A3.49,3.49,0,0,0,13,33.18a3.53,3.53,0,0,0,.71,2.24,2.48,2.48,0,0,0,2.07,1,3.31,3.31,0,0,0,1.45-.33,5,5,0,0,0,.91-.61,2.14,2.14,0,0,1,.43-.34.24.24,0,0,1,.18.1c.09.1.34.47.76,1.1A5.93,5.93,0,0,1,20.11,37.39Z"/><path class="cls-2" d="M28.6,39.52l-2,0-2,0-2.63,0c-.26,0-.64,0-1.13,0a.27.27,0,0,1-.26-.28c0-.64,0-1.59,0-2.87s0-2.23,0-2.87,0-1.69-.07-3.05-.06-2.38-.06-3c0-.13.09-.2.27-.2l.78,0c.35,0,.61,0,.78,0l.86,0,.86,0c.09,0,.13.06.13.17v.11c-.07,1.11-.15,2.76-.24,5v2.32c0,.75,0,1.3,0,1.64l0,.21c0,.08,0,.12.13.14h.23q.8,0,2.37-.09c1-.05,1.84-.08,2.37-.08.15,0,.23.07.23.2a13,13,0,0,1-.22,2.59c0,.16-.09.25-.18.28Z"/><path class="cls-2" d="M42,33.22a6.44,6.44,0,0,1-1.75,4.6,6.33,6.33,0,0,1-9,0,6.4,6.4,0,0,1-1.76-4.58,6.44,6.44,0,0,1,1.76-4.59,6.27,6.27,0,0,1,9,0A6.47,6.47,0,0,1,42,33.22Zm-3.33,0A3.3,3.3,0,0,0,37.9,31a2.69,2.69,0,0,0-2.13-1,2.65,2.65,0,0,0-2.1,1,3.48,3.48,0,0,0-.06,4.46,2.84,2.84,0,0,0,4.27-.05A3.25,3.25,0,0,0,38.7,33.21Z"/><path class="cls-2" d="M48.8,35.33a3.87,3.87,0,0,1-1.51,3.06,6.31,6.31,0,0,1-3.2,1.43H44c-.13,0-.43-.41-.89-1.23a5.31,5.31,0,0,1-.7-1.51.13.13,0,0,1,.13-.12,9.12,9.12,0,0,0,1.69-.5,1.44,1.44,0,0,0,.91-1.35,2,2,0,0,0-.59-1.27c-.69-.8-1.07-1.24-1.13-1.33a3.6,3.6,0,0,1-.6-2,3.18,3.18,0,0,1,1.48-2.67,6.68,6.68,0,0,1,3-1.15h.15q.14,0,.21.21c.15.42.51,1.2,1.06,2.32a.16.16,0,0,1,0,.08c0,.1-.05.15-.16.15l-.24,0-.25,0a2.14,2.14,0,0,0-1.11.29,1,1,0,0,0-.57.93A2.3,2.3,0,0,0,47,31.93c.75.94,1.14,1.43,1.17,1.48A3.48,3.48,0,0,1,48.8,35.33Z"/><path class="cls-2" d="M58.72,36.64A11.36,11.36,0,0,1,58.57,38a5.71,5.71,0,0,1-.28,1.31.34.34,0,0,1-.29.17l-.27,0c-.43-.06-1.67-.09-3.74-.09H50c-.19,0-.29-.09-.29-.26,0-.66,0-1.64.11-3s.11-2.3.11-2.95,0-1.92-.1-3.74c0-.47,0-1.17-.1-2.1v-.12c0-.14.06-.21.22-.21l2,0,2,0,1.93,0,1.94,0c.3,0,.48.12.53.35s.07.54.13,1.22.09,1.1.09,1.25-.06.18-.17.18h-.19c-1.56-.13-3-.19-4.2-.19-.31,0-.5.07-.57.22a2.8,2.8,0,0,0,0,.68,1.31,1.31,0,0,0,.17.79.76.76,0,0,0,.57.16h.77c.74,0,1.48,0,2.24-.06l.48-.05.48,0c.14,0,.21.06.21.2,0-.12,0,.32-.16,1.34A13.31,13.31,0,0,0,58,34.48c0,.12-.08.18-.25.18l-.8-.09q-.49-.06-2.28-.06H53.7q-.36,0-.42.18a5.31,5.31,0,0,0,0,.55,3,3,0,0,0,.08.86c.1.22.48.35,1.13.39h1.28c.31,0,.77,0,1.39-.08s1.07-.08,1.37-.08C58.65,36.33,58.72,36.43,58.72,36.64Z"/></svg>