<svg id="레이어_1" data-name="레이어 1" xmlns="http://www.w3.org/2000/svg" viewBox="0 0 83.92 69.28"><defs><style>.cls-1{fill:#151515;}</style></defs><title>logo</title><path class="cls-1" d="M15.67,7c.59-2.87,4.49-3.88,6.88-4.24,1-.16,3.45-.8,3.75,0,.18.49-.49,1.77-.67,2.24-.83,2.15-1.93,4.18-2.87,6.29-1.05,2.35-3,6,.94,6.21,4.11.26,8.53-3,11.67-5.27C37.26,10.88,33,11,32,11.72c-.84.62-5.85,4.15-6.35,3.32C25,14,27.1,10.6,27.5,9.72c.84-1.8,4.67-7.47,2.46-9.2-1.51-1.18-6.08,0-7.8.28A20.58,20.58,0,0,0,15.61,3c-1.69,1-3.81,2.56-4.23,4.6-.29,1.46,4,.76,4.29-.59Z"/><path class="cls-1" d="M15,10.77c-1.1,1.64-2.49,3.78-2.58,5.81-.14,3.48,6.31.85,7.51-.56.46-.53-1.59-.31-1.69-.29a4.47,4.47,0,0,0-2.54,1.1c-.9,1.05,1.24-.9,1.46-.26-.08-.22-.36-.36-.42-.68a4.51,4.51,0,0,1,.56-2.43A21.3,21.3,0,0,1,19.25,10c.4-.59-1.55-.32-1.69-.3-.75.14-2.07.41-2.54,1.11Z"/><path class="cls-1" d="M19.92,22.63c2.45,1.67,2.36,5.76,2,8.26C19.93,44.06,8.66,56.08.21,65.53c-1.19,1.33,3.09,1,4,0C12.8,56,24.61,43.36,26.28,29.78c.33-2.73.26-7-2.36-8.81-1.22-.83-5.11.9-4,1.66Z"/><path class="cls-1" d="M5.82,39C18,43.1,18.41,58.5,15.71,68.7c-.29,1.1,3.94.5,4.25-.69,2.9-10.93,2.17-26.49-10.64-30.77C8.26,36.89,4.4,38.56,5.82,39Z"/><path d="M43.26,53.2A15.39,15.39,0,0,0,44,58.67,3.73,3.73,0,0,0,46.16,61L45,64a4.09,4.09,0,0,1-1.83-.89,6.88,6.88,0,0,1-1.63-2,7.11,7.11,0,0,1-1.66,2A4.11,4.11,0,0,1,38,64l-1.2-3A3.73,3.73,0,0,0,39,58.67a15.39,15.39,0,0,0,.75-5.47V49.62h3.54Zm3.8-3.82h3.76V64.62H47.06V57.4H44.8v-3h2.26Z"/><path d="M61.12,58.22H56.38V61h5.14v3h-8.9v-8.8h4.76v-2.6H52.62v-3h8.5Zm5.5,6.4H62.86V49.42h3.76Z"/><path d="M76.92,58.22H72.18V61h5.14v3h-8.9v-8.8h4.76v-2.6H68.42v-3h8.5Zm5.5-3h1.5v3h-1.5v6.42H78.66V49.42h3.76Z"/><path d="M36.62,29.47a4,4,0,0,1,2.77.9,3.2,3.2,0,0,1,1,2.5,3.22,3.22,0,0,1-1,2.5,4,4,0,0,1-2.77.9H35.08a4,4,0,0,1-2.77-.9,3.22,3.22,0,0,1-1-2.5,3.2,3.2,0,0,1,1-2.5,4,4,0,0,1,2.77-.9v0h1.54ZM35.48,41.89v.6h10v2.2H31.72v-5h9.86v-.6H31.72v-2.2h13.6v5Zm.68-8.34a.64.64,0,0,0,.7-.7.7.7,0,0,0-.18-.52.71.71,0,0,0-.52-.18h-.62a.69.69,0,0,0-.51.18.67.67,0,0,0-.19.52.69.69,0,0,0,.19.51.69.69,0,0,0,.51.19Zm9.16,2.78H41.58V29.49h3.74Z"/><path d="M61.32,29.49v15.2H57.56V38.27H56.32V40a4.51,4.51,0,1,1-9,0V34a4.56,4.56,0,0,1,1.14-3.36,4.56,4.56,0,0,1,3.36-1.14,4.56,4.56,0,0,1,3.36,1.14A4.56,4.56,0,0,1,56.32,34v1.28h1.24V29.49Zm-8.8,3.7a.7.7,0,1,0-1.4,0v7.6a.7.7,0,0,0,1.4,0Z"/></svg>