<svg id="레이어_1" data-name="레이어 1" xmlns="http://www.w3.org/2000/svg" viewBox="0 0 70.71 65.06"><defs><style>.cls-1{fill:#d64141;stroke:#111;stroke-miterlimit:10;}.cls-2{fill:#111;}</style></defs><title>menu</title><path class="cls-1" d="M52.08.5C40.5.5,36.36,11.61,36.36,11.61S32.21.5,20.63.5-2.67,14.39,4.9,30.5c8.57,18.22,31.46,30,31.46,30s22.89-11.78,31.45-30C75.38,14.39,63.66.5,52.08.5Z"/><path class="cls-1" d="M50.08,4.5C38.5,4.5,34.36,15.61,34.36,15.61S30.21,4.5,18.63,4.5-4.67,18.39,2.9,34.5c8.57,18.22,31.46,30,31.46,30s22.89-11.78,31.45-30C73.38,18.39,61.66,4.5,50.08,4.5Z"/><path class="cls-2" d="M24,39.1c0,.18-.08.28-.25.28H20.59c-.17,0-.26-.11-.26-.31,0-.59,0-1.48.07-2.67s.06-2.07.06-2.66c0-.17,0-.26-.08-.27a27,27,0,0,0-1.17,2.71l-1.27,3.13c-.06.13-.13.21-.22.23h-.35c-.31,0-.49-.06-.55-.17-.31-.65-.73-1.59-1.24-2.82s-1-2.24-1.24-2.82a.58.58,0,0,0-.08-.1.45.45,0,0,0-.06.26c0,.57,0,1.44,0,2.58s0,2,0,2.59c0,.2-.08.31-.24.31H11.1q-.18,0-.21-.06a.35.35,0,0,1,0-.2q0-1,.09-2.88T11,33.36c0-.68,0-1.95-.09-3.82,0-.49,0-1.21-.08-2.17v-.15c0-.12.11-.18.37-.18l1.45,0,1.45,0c.06,0,.15.13.27.37L17,33c.19.38.34.57.46.57s.2-.22.41-.66c.6-1.23,1.47-3.09,2.63-5.57.1-.22.21-.34.33-.34l.77,0c.34,0,.6,0,.77,0s.37,0,.68,0,.52,0,.67,0,.26.07.26.21c0,.69,0,1.72-.07,3.1s-.08,2.4-.08,3.09,0,1.6.08,2.88S24,38.47,24,39.1Z"/><path class="cls-2" d="M34.05,36.64A11.36,11.36,0,0,1,33.9,38a5.71,5.71,0,0,1-.28,1.31.34.34,0,0,1-.29.17l-.27,0c-.43-.06-1.67-.09-3.74-.09h-4c-.19,0-.29-.09-.29-.26,0-.66,0-1.64.11-3s.11-2.3.11-2.95,0-1.92-.1-3.74c0-.47-.05-1.17-.1-2.1v-.12c0-.14.06-.21.22-.21l2,0,2,0,1.93,0L33,27c.3,0,.48.12.53.35s.07.54.13,1.22.09,1.1.09,1.25-.05.18-.17.18h-.19c-1.56-.13-3-.19-4.2-.19-.31,0-.5.07-.57.22a2.8,2.8,0,0,0,0,.68,1.31,1.31,0,0,0,.17.79.76.76,0,0,0,.57.16h.77c.74,0,1.48,0,2.24-.06l.48-.05.48,0c.14,0,.21.06.21.2,0-.12-.05.32-.16,1.34a13.31,13.31,0,0,0-.07,1.41c0,.12-.08.18-.25.18l-.8-.09c-.33,0-1.09,0-2.28,0H29c-.24,0-.38,0-.42.17a5.31,5.31,0,0,0,0,.55,3,3,0,0,0,.08.86c.1.22.48.35,1.13.39h1.28c.31,0,.77,0,1.39-.08s1.07-.08,1.37-.08C34,36.33,34.05,36.43,34.05,36.64Z"/><path class="cls-2" d="M46.43,27.32c0,.66,0,1.67-.08,3s-.08,2.34-.08,3v5.79c0,.16-.09.24-.26.24h-.63l-.64,0-.69,0c-.3,0-.53,0-.68,0s-.23-.1-.38-.29q-.63-.86-2.85-3.78c-.4-.54-1-1.35-1.84-2.41a.42.42,0,0,0-.14-.1.26.26,0,0,0-.07.19q0,1,.06,3.06t.06,3.06c0,.2-.08.31-.24.31h-3c-.17,0-.25-.1-.25-.28,0-.63,0-1.58.09-2.86s.09-2.24.09-2.88,0-1.68-.08-3-.09-2.35-.09-3c0-.13.12-.2.35-.2s.75,0,1.25-.07L37,27a3.46,3.46,0,0,1,.69-.08q.1,0,.33.3l3.27,4.49,1.33,1.77c.15.19.27.28.38.28s.11-.23.11-.69c0-.61,0-1.54-.1-2.78s-.1-2.16-.1-2.78c0-.22.06-.33.19-.33.35,0,.88,0,1.59,0S45.92,27,46.27,27C46.38,27,46.43,27.14,46.43,27.32Z"/><path class="cls-2" d="M58,35.06a6.07,6.07,0,0,1-.53,3.06q-1,1.49-4.92,1.49a10.63,10.63,0,0,1-2.73-.27,2.75,2.75,0,0,1-2-1.68,7,7,0,0,1-.22-2.16c0-.24,0-.6,0-1.07s0-.83,0-1.07c0-.68,0-1.7-.1-3.05s-.09-2.38-.09-3c0-.15.06-.22.18-.22.36,0,.9,0,1.62.05s1.27,0,1.62,0c.15,0,.22.07.22.2,0,.77,0,1.93-.07,3.47S51,33.5,51,34.28a4.06,4.06,0,0,0,.29,1.86,1.73,1.73,0,0,0,1.62.66,1.57,1.57,0,0,0,1.8-1.75c0-.85,0-2.12-.06-3.82s-.06-3-.06-3.83c0-.18.07-.27.22-.27.35,0,.87,0,1.56,0S57.57,27,57.92,27c.17,0,.25.07.25.22,0,.67,0,1.69-.08,3S58,32.68,58,33.36c0,.19,0,.47,0,.85Z"/></svg>