
<svg version="1.1" id="donga_svg_logo" xmlns="http://www.w3.org/2000/svg" xmlns:xlink="http://www.w3.org/1999/xlink" x="0px" y="0px"
	 width="443.083px" height="114.625px" viewBox="0.68 1.417 443.083 114.625" enable-background="new 0.68 1.417 443.083 114.625"
	 xml:space="preserve">
    
    
    
    <defs>
        
        <style>
        
        .svg_logo { 
            
            <!-- 도형 윤곽선을 그리는데 사용되는 dash간격 및 패턴 -->
            stroke-dasharray: 1100;
            
            <!-- 패턴 거리 -->
            stroke-dashoffset: 0;
            
            <!-- 애니메이션 -->
            animation: logo_ani 4.5s reverse ease-in forwards 3.5s;
            -webkit-animation: logo_ani 4.5s ease-in forwards;
            -ms-animation: logo_ani 4.5s ease-in forwards;
            -o-animation: logo_ani 4.5s ease-in forwards;
            -moz-animation: logo_ani 4.5s ease-in forwards;
            
        }
            
        #dong { 
            
            <!-- 도형 윤곽선을 그리는데 사용되는 dash간격 및 패턴  -->
            stroke-dasharray: 1100;
            
            <!-- 패턴 거리 -->
            stroke-dashoffset: 0;
            
            <!-- 애니메이션 -->
            animation: logo_ani_dong 4.9s ease-out forwards 3.5s;
            -webkit-animation: logo_ani 4.9s ease-out forwards;
            -ms-animation: logo_ani 4.9s ease-out forwards;
            -o-animation: logo_ani 4.9s ease-in forwards;
            -moz-animation: logo_ani 4.9s ease-in forwards;
            
        }
            
           <!-- 패스 길이 애니메이션 -->
        @-webkit-keyframes logo_ani_dong {
        
            <!-- 패스의 길이 -->
            0% { stroke-dashoffset: 11000; }
            
            60% { stroke-dashoffset: 0; }
            
            65% { fill: rgba(9,26,56,0); }
                        
            100% { fill: rgba(9,26,56,1); }
            
        } 
            
            
        
        <!-- 패스 길이 애니메이션 -->
        @-webkit-keyframes logo_ani {
        
            <!-- 패스의 길이 -->
            0% { stroke-dashoffset: 1100; }
            
            <!-- 34% { fill: rgba(9,26,56,0); } -->
            70% { fill: rgba(9,26,56,0); }
            
            95% { stroke-dashoffset: 0; }
            
            
                        
            100% { fill: rgba(9,26,56,1); }
            
        }
            
            @-moz-keyframes logo_ani {
        
            <!-- 패스의 길이 -->
            0% { stroke-dashoffset: 1100; }
            
            <!-- 34% { fill: rgba(9,26,56,0); } -->
            70% { fill: rgba(9,26,56,0); }
            
            95% { stroke-dashoffset: 0; }
            
            
                        
            100% { fill: rgba(9,26,56,1); }
            
        }
            
            @-ms-keyframes logo_ani {
        
            <!-- 패스의 길이 -->
            0% { stroke-dashoffset: 1100; }
            
            <!-- 34% { fill: rgba(9,26,56,0); } -->
            70% { fill: rgba(9,26,56,0); }
            
            95% { stroke-dashoffset: 0; }
            
            
                        
            100% { fill: rgba(9,26,56,1); }
            
        }
            
            @-o-keyframes logo_ani {
        
            <!-- 패스의 길이 -->
            0% { stroke-dashoffset: 1100; }
            
            <!-- 34% { fill: rgba(9,26,56,0); } -->
            70% { fill: rgba(9,26,56,0); }
            
            95% { stroke-dashoffset: 0; }
            
            
                        
            100% { fill: rgba(9,26,56,1); }
            
        }
            
            @keyframes logo_ani {
        
            <!-- 패스의 길이 -->
            0% { stroke-dashoffset: 1100; }
            
            <!-- 34% { fill: rgba(9,26,56,0); } -->
            70% { fill: rgba(9,26,56,0); }
            
            95% { stroke-dashoffset: 0; }
            
            
                        
            100% { fill: rgba(9,26,56,1); }
            
        }
            
            
        <!-- 색칠 애니메이션 -->
        @-webkit-keyframes fill_ani {
        
            <!-- 패스의 길이 -->
            100% { fill: #091a38; }
        }
            
            @-moz-keyframes fill_ani {
        
            <!-- 패스의 길이 -->
            100% { fill: #091a38; }
        }
            
            @-o-keyframes fill_ani {
        
            <!-- 패스의 길이 -->
            100% { fill: #091a38; }
        }
            
            @-ms-keyframes fill_ani {
        
            <!-- 패스의 길이 -->
            100% { fill: #091a38; }
        }
            
            
            @keyframes fill_ani {
        
            <!-- 패스의 길이 -->
            100% { fill: #091a38; }
        }
            
            
            
        </style>
        
    </defs>
    
    
    
    
    
    
<g>
	<path class="svg_logo" id="dong" fill="none" stroke="#0C1A36" stroke-width="1.5" stroke-linejoin="round" d="M32.647,15.506v9.72
		c0,1.841,0.879,2.76,2.64,2.76h50.28c1.359,0,2.239,0.54,2.64,1.62c0.399,1.08,0.6,2.741,0.6,4.98c0,2.321-0.201,4.02-0.6,5.1
		c-0.401,1.08-1.281,1.62-2.64,1.62h-24.84v9.6h40.08c1.599,0,2.619,0.521,3.06,1.56c0.438,1.041,0.66,2.721,0.66,5.04
		c0,2.321-0.221,3.981-0.66,4.98c-0.441,1.001-1.461,1.5-3.06,1.5H1.448v-13.08h42.72v-9.6h-12.6c-1.601,0-3.36-0.6-5.28-1.8
		c-1.92-1.2-3.561-2.479-4.92-3.84c-1.281-1.359-2.441-2.859-3.48-4.5c-1.041-1.639-1.56-3.06-1.56-4.26V2.187h68.04
		c1.359,0,2.239,0.54,2.64,1.62c0.399,1.08,0.6,2.741,0.6,4.98c0,2.321-0.201,4.02-0.6,5.1c-0.401,1.08-1.28,1.62-2.64,1.62
		L32.647,15.506L32.647,15.506z M83.768,92.067c0,3.76-0.881,7.098-2.64,10.02c-1.761,2.92-4.101,5.359-7.02,7.32
		c-2.921,1.959-6.26,3.438-10.02,4.439c-3.761,1-7.68,1.5-11.76,1.5s-8-0.5-11.76-1.5c-3.761-1.001-7.101-2.48-10.02-4.439
		c-2.921-1.961-5.261-4.4-7.02-7.32c-1.76-2.922-2.64-6.26-2.64-10.02s0.879-7.1,2.64-10.021c1.759-2.918,4.099-5.357,7.02-7.318
		c2.919-1.96,6.259-3.439,10.02-4.439c3.76-1,7.68-1.5,11.76-1.5s7.999,0.5,11.76,1.5c3.76,1,7.099,2.479,10.02,4.439
		c2.919,1.961,5.259,4.4,7.02,7.318C82.886,84.967,83.768,88.307,83.768,92.067z M67.448,92.067c0-3.039-1.401-5.461-4.2-7.26
		c-2.801-1.801-6.401-2.701-10.8-2.701c-4.56,0-8.241,0.9-11.04,2.701c-2.801,1.799-4.2,4.221-4.2,7.26s1.399,5.459,4.2,7.26
		c2.799,1.801,6.48,2.699,11.04,2.699c4.398,0,7.999-0.898,10.8-2.699C66.047,97.526,67.448,95.106,67.448,92.067z"/>
	<path class="svg_logo" fill="none" stroke="#0C1A36" stroke-width="1.5" stroke-linejoin="round" d="M112.687,44.307c0-4.72,0.76-9,2.28-12.84
		c1.519-3.84,3.66-7.14,6.42-9.9c2.76-2.76,6.061-4.899,9.9-6.42c3.84-1.519,8.04-2.28,12.6-2.28c4.561,0,8.76,0.761,12.6,2.28
		c3.84,1.521,7.14,3.66,9.9,6.42c2.76,2.76,4.92,6.06,6.48,9.9c1.56,3.84,2.34,8.121,2.34,12.84c0,4.721-0.78,9-2.34,12.84
		c-1.56,3.84-3.72,7.141-6.48,9.9c-2.76,2.761-6.06,4.9-9.9,6.42c-3.84,1.521-8.04,2.279-12.6,2.279c-4.56,0-8.76-0.76-12.6-2.279
		s-7.14-3.659-9.9-6.42c-2.76-2.76-4.901-6.061-6.42-9.9C113.446,53.307,112.687,49.028,112.687,44.307z M159.007,44.307
		c0-5.359-1.421-9.64-4.26-12.84c-2.84-3.199-6.461-4.8-10.86-4.8c-4.401,0-8.021,1.601-10.86,4.8
		c-2.841,3.201-4.26,7.481-4.26,12.84c0,5.441,1.419,9.741,4.26,12.9c2.838,3.161,6.459,4.74,10.86,4.74
		c4.399,0,8.02-1.579,10.86-4.74C157.585,54.047,159.007,49.748,159.007,44.307z M185.167,3.506h16.56v33.84h18.121v14.04h-18.121
		v51.239c0,1.359-0.72,2.28-2.16,2.762c-1.44,0.479-3.521,0.719-6.24,0.719c-2.561,0-4.56-0.221-6-0.66
		c-1.44-0.439-2.16-1.34-2.16-2.699V3.506z"/>
	<path class="svg_logo" fill="none" stroke="#0C1A36" stroke-width="1.5" stroke-linejoin="round" d="M226.207,25.827v-14.04h44.521
		c1.358,0,2.237,0.6,2.64,1.8c0.399,1.2,0.602,2.921,0.602,5.16c0,2.321-0.201,4.08-0.602,5.28c-0.4,1.2-1.279,1.8-2.64,1.8h-12.24
		v3.24c0,4.001,0.438,7.841,1.32,11.52c0.879,3.681,2.101,7.26,3.659,10.74c1.561,3.48,3.398,6.8,5.521,9.96
		c2.119,3.16,4.38,6.18,6.779,9.06c0.88,1.121,1.062,2.142,0.541,3.061c-0.521,0.921-1.781,2.142-3.78,3.66
		c-1.199,0.959-2.182,1.66-2.939,2.101c-0.762,0.439-1.4,0.701-1.92,0.778c-0.521,0.082-0.98,0.021-1.381-0.18
		c-0.4-0.198-0.84-0.539-1.318-1.021c-1.121-1.039-2.34-2.418-3.66-4.141c-1.32-1.719-2.621-3.578-3.9-5.58
		c-1.281-1.998-2.5-4.098-3.66-6.299c-1.16-2.199-2.141-4.339-2.938-6.42c-1.681,4.641-3.822,9.101-6.42,13.379
		c-2.603,4.281-5.183,7.941-7.74,10.98c-1.041,1.121-2.082,1.561-3.12,1.319c-1.04-0.239-2.841-1.278-5.398-3.12
		c-2.4-1.839-3.822-3.197-4.262-4.08c-0.439-0.88-0.222-1.879,0.66-3c5.118-6.24,9.239-12.938,12.36-20.1
		c3.118-7.159,4.68-14.62,4.68-22.38v-3.48L226.207,25.827L226.207,25.827z M267.126,50.187v-14.04h14.879V4.707h15.601v96.72
		c0,1.278-0.659,2.118-1.979,2.52c-1.319,0.4-3.262,0.601-5.819,0.601c-2.479,0-4.399-0.199-5.761-0.601
		c-1.36-0.399-2.041-1.239-2.041-2.52v-51.24H267.126z M322.207,102.506c0,1.358-0.701,2.238-2.101,2.641
		c-1.401,0.398-3.381,0.6-5.94,0.6c-2.479,0-4.42-0.201-5.82-0.6c-1.399-0.402-2.1-1.281-2.1-2.641v-99h15.961V102.506
		L322.207,102.506z"/>
	<path class="svg_logo" fill="none" stroke="#0C1A36" stroke-width="1.5" stroke-linejoin="round" d="M392.884,31.586c0,3.84-0.74,7.421-2.219,10.74
		c-1.482,3.32-3.521,6.221-6.121,8.7c-2.601,2.481-5.682,4.421-9.24,5.82c-3.561,1.4-7.379,2.1-11.459,2.1s-7.881-0.699-11.4-2.1
		c-3.521-1.399-6.58-3.339-9.18-5.82c-2.602-2.479-4.641-5.379-6.12-8.7c-1.481-3.319-2.22-6.9-2.22-10.74
		c0-3.84,0.738-7.458,2.22-10.86c1.479-3.399,3.519-6.339,6.12-8.82c2.6-2.479,5.658-4.44,9.18-5.88c3.52-1.44,7.32-2.16,11.4-2.16
		s7.898,0.72,11.459,2.16s6.641,3.401,9.24,5.88c2.6,2.48,4.639,5.42,6.121,8.82C392.144,24.128,392.884,27.747,392.884,31.586z
		 M377.044,31.586c0-1.92-0.32-3.739-0.959-5.46c-0.643-1.719-1.543-3.199-2.701-4.44c-1.16-1.239-2.541-2.239-4.139-3
		c-1.603-0.759-3.402-1.14-5.4-1.14c-1.92,0-3.701,0.381-5.34,1.14c-1.641,0.761-3.021,1.761-4.141,3
		c-1.121,1.241-2,2.721-2.641,4.44c-0.643,1.721-0.96,3.54-0.96,5.46c0,3.84,1.198,7.08,3.601,9.72
		c2.399,2.64,5.559,3.96,9.479,3.96c4,0,7.199-1.32,9.601-3.96C375.845,38.667,377.044,35.426,377.044,31.586z M407.406,82.586
		h-55.441V69.026h65.521c2.079,0,3.641,0.502,4.68,1.5c1.039,1.002,1.561,2.781,1.561,5.342v34.56c0,1.6-0.801,2.56-2.398,2.881
		c-1.602,0.317-3.521,0.479-5.761,0.479c-2.562,0-4.56-0.201-6-0.602s-2.159-1.318-2.159-2.76v-27.84H407.406z M443.044,37.466
		v13.44h-18.119v9.36c0,1.602-0.801,2.602-2.4,3c-1.602,0.402-3.521,0.602-5.76,0.602c-2.563,0-4.561-0.26-6-0.781
		c-1.439-0.52-2.16-1.457-2.16-2.819V2.307h16.32v8.76h18.119v13.44h-18.119v12.96L443.044,37.466L443.044,37.466z"/>
</g>
</svg>
