<svg id="레이어_1" data-name="레이어 1" xmlns="http://www.w3.org/2000/svg" viewBox="0 0 227.31 46.6"><defs><style>.cls-1{fill:#111;}.cls-2{fill:#d64141;}</style></defs><title>ai</title><path class="cls-1" d="M220.59,31.49H31a6.74,6.74,0,0,1-6.73-6.72V23A6.74,6.74,0,0,1,31,16.3H220.59A6.74,6.74,0,0,1,227.31,23v1.74A6.73,6.73,0,0,1,220.59,31.49ZM31,17.24A5.8,5.8,0,0,0,25.22,23v1.74A5.79,5.79,0,0,0,31,30.55H220.59a5.78,5.78,0,0,0,5.78-5.78V23a5.79,5.79,0,0,0-5.78-5.79Z"/><path class="cls-1" d="M59.39,31.3a.47.47,0,0,1-.47-.47V27.72a.47.47,0,0,1,.94,0v3.11A.47.47,0,0,1,59.39,31.3Z"/><path class="cls-1" d="M77,31.3a.47.47,0,0,1-.47-.47V27.72a.47.47,0,0,1,.94,0v3.11A.47.47,0,0,1,77,31.3Z"/><path class="cls-1" d="M94.55,31.3a.47.47,0,0,1-.47-.47V27.72a.47.47,0,0,1,.47-.47.48.48,0,0,1,.47.47v3.11A.48.48,0,0,1,94.55,31.3Z"/><path class="cls-1" d="M112.12,31.3a.47.47,0,0,1-.47-.47V27.72a.47.47,0,0,1,.94,0v3.11A.47.47,0,0,1,112.12,31.3Z"/><path class="cls-1" d="M129.7,31.3a.47.47,0,0,1-.47-.47V27.72a.47.47,0,0,1,.94,0v3.11A.47.47,0,0,1,129.7,31.3Z"/><path class="cls-1" d="M147.27,31.3a.47.47,0,0,1-.47-.47V27.72a.47.47,0,1,1,.94,0v3.11A.47.47,0,0,1,147.27,31.3Z"/><path class="cls-1" d="M164.85,31.3a.47.47,0,0,1-.47-.47V27.72a.47.47,0,0,1,.94,0v3.11A.47.47,0,0,1,164.85,31.3Z"/><path class="cls-1" d="M182.43,31.3a.47.47,0,0,1-.47-.47V27.72a.47.47,0,1,1,.93,0v3.11A.47.47,0,0,1,182.43,31.3Z"/><path class="cls-1" d="M200,31.3a.47.47,0,0,1-.47-.47V27.72a.47.47,0,0,1,.94,0v3.11A.47.47,0,0,1,200,31.3Z"/><path class="cls-1" d="M217.58,31.3a.47.47,0,0,1-.47-.47V27.72a.47.47,0,0,1,.94,0v3.11A.47.47,0,0,1,217.58,31.3Z"/><path class="cls-1" d="M50.13,31.3a.47.47,0,0,1-.47-.47V24.61a.47.47,0,1,1,.94,0v6.22A.47.47,0,0,1,50.13,31.3Z"/><path class="cls-1" d="M67.79,31.3a.47.47,0,0,1-.47-.47V24.61a.47.47,0,1,1,.94,0v6.22A.47.47,0,0,1,67.79,31.3Z"/><path class="cls-1" d="M85.44,31.3a.47.47,0,0,1-.47-.47V24.61a.47.47,0,0,1,.94,0v6.22A.47.47,0,0,1,85.44,31.3Z"/><path class="cls-1" d="M103.1,31.3a.47.47,0,0,1-.47-.47V24.61a.47.47,0,0,1,.94,0v6.22A.47.47,0,0,1,103.1,31.3Z"/><path class="cls-1" d="M120.75,31.3a.47.47,0,0,1-.47-.47V24.61a.47.47,0,0,1,.94,0v6.22A.47.47,0,0,1,120.75,31.3Z"/><path class="cls-1" d="M138.41,31.3a.47.47,0,0,1-.47-.47V24.61a.47.47,0,1,1,.94,0v6.22A.47.47,0,0,1,138.41,31.3Z"/><path class="cls-1" d="M156.06,31.3a.47.47,0,0,1-.47-.47V24.61a.47.47,0,0,1,.94,0v6.22A.47.47,0,0,1,156.06,31.3Z"/><path class="cls-1" d="M173.72,31.3a.47.47,0,0,1-.47-.47V24.61a.47.47,0,1,1,.94,0v6.22A.47.47,0,0,1,173.72,31.3Z"/><path class="cls-1" d="M191.37,31.3a.47.47,0,0,1-.47-.47V24.61a.47.47,0,0,1,.94,0v6.22A.47.47,0,0,1,191.37,31.3Z"/><path class="cls-1" d="M209,31.3a.47.47,0,0,1-.47-.47V24.61a.47.47,0,1,1,.94,0v6.22A.47.47,0,0,1,209,31.3Z"/><path class="cls-2" d="M37.21.47C29,.47,26,8.38,26,8.38S23.05.47,14.8.47-1.8,10.37,3.6,21.85C9.7,34.83,26,43.22,26,43.22s16.31-8.39,22.41-21.37C53.81,10.37,45.46.47,37.21.47Z"/><path class="cls-1" d="M26,43.75l-.22-.11C25.63,43.56,9.27,35,3.17,22.05.66,16.7.87,11,3.74,6.52A13.47,13.47,0,0,1,14.8,0C21.52,0,24.89,5.11,26,7.27,27.13,5.11,30.49,0,37.21,0A13.5,13.5,0,0,1,48.28,6.52c2.87,4.52,3.08,10.18.56,15.53-6.1,13-22.45,21.51-22.62,21.59ZM14.8.94A12.53,12.53,0,0,0,4.53,7C1.83,11.27,1.65,16.6,4,21.65c5.59,11.88,20.05,20,22,21,1.94-1,16.4-9.16,22-21,2.38-5,2.19-10.38-.51-14.63A12.53,12.53,0,0,0,37.21.94c-7.82,0-10.65,7.3-10.76,7.61L26,9.72l-.44-1.17C25.45,8.24,22.62.94,14.8.94Z"/><path class="cls-2" d="M35.79,3.32c-8.25,0-11.21,7.91-11.21,7.91s-2.95-7.91-11.2-7.91S-3.22,13.22,2.17,24.7c6.1,13,22.41,21.37,22.41,21.37S40.89,37.68,47,24.7C52.39,13.22,44,3.32,35.79,3.32Z"/><path class="cls-1" d="M24.58,46.6l-.21-.11C24.2,46.41,7.84,37.87,1.75,24.9c-2.52-5.35-2.31-11,.56-15.53A13.5,13.5,0,0,1,13.38,2.85c6.72,0,10.08,5.11,11.2,7.27C25.7,8,29.07,2.85,35.79,2.85A13.47,13.47,0,0,1,46.85,9.37c2.87,4.52,3.08,10.18.57,15.53C41.32,37.87,25,46.41,24.8,46.49ZM13.38,3.79A12.53,12.53,0,0,0,3.11,9.87C.41,14.12.22,19.45,2.6,24.5c5.58,11.88,20,20,22,21,1.94-1,16.4-9.16,22-21,2.37-5.05,2.18-10.38-.51-14.63A12.55,12.55,0,0,0,35.79,3.79C28,3.79,25.14,11.09,25,11.4l-.44,1.17-.44-1.17C24,11.09,21.19,3.79,13.38,3.79Z"/><path class="cls-1" d="M28.3,30.1q0,.15-.21.21a10.62,10.62,0,0,1-1.55.06A11.78,11.78,0,0,1,25,30.31a.46.46,0,0,1-.36-.38c-.19-.8-.33-1.23-.44-1.28A18,18,0,0,0,22,28.59a6.83,6.83,0,0,0-1.51.07,2.46,2.46,0,0,0-.32.9c-.1.46-.23.71-.38.75a15.66,15.66,0,0,1-1.9.06c-.86,0-1.28-.08-1.28-.24s.63-1.92,1.88-5.33q2.06-5.53,2.23-6.09c.06-.21.14-.32.23-.32l.7,0c.31,0,.55.05.7.05l.67,0,.65,0c.11,0,.2.09.29.27.28.59,1.07,2.59,2.39,6S28.3,30,28.3,30.1Zm-5.92-7.61a16,16,0,0,0-.59,1.6,8.46,8.46,0,0,0-.45,1.53c0,.09.16.15.5.16l.85,0c.37,0,.57-.05.61-.13a.41.41,0,0,0,0-.12A7.55,7.55,0,0,0,22.93,24,11.39,11.39,0,0,0,22.38,22.49Z"/><path class="cls-1" d="M31.67,26.47c0,.41,0,1,0,1.82s0,1.41,0,1.81q0,.18-.21.21a10.36,10.36,0,0,1-1.28.05A10.48,10.48,0,0,1,29,30.31a.31.31,0,0,1-.23-.11.94.94,0,0,1,0-.25c0-.39,0-1,0-1.73s0-1.36,0-1.75a31.1,31.1,0,0,0-.18-3.77c0-.09,0-.15,0-.17s.08-.17.23-.17.39,0,.71.05.56.05.73.05l.72,0c.33,0,.57,0,.73,0s.2.05.2.16,0,.08,0,.16A34.77,34.77,0,0,0,31.67,26.47Zm.22-6.2c0,1-.55,1.45-1.64,1.45a1.83,1.83,0,0,1-1.16-.36,1.4,1.4,0,0,1,0-2.16,1.87,1.87,0,0,1,2.27,0A1.31,1.31,0,0,1,31.89,20.27Z"/></svg>