<svg id="레이어_1" data-name="레이어 1" xmlns="http://www.w3.org/2000/svg" viewBox="0 0 227.31 46.6"><defs><style>.cls-1{fill:#111;}.cls-2{fill:#d64141;}.cls-3,.cls-4{fill:none;stroke:#111;stroke-miterlimit:10;}.cls-3{stroke-width:0.64px;}.cls-4{stroke-width:0.65px;}</style></defs><title>html</title><path class="cls-1" d="M220.59,31.49H31a6.74,6.74,0,0,1-6.73-6.72V23A6.74,6.74,0,0,1,31,16.3H220.59A6.74,6.74,0,0,1,227.31,23v1.74A6.73,6.73,0,0,1,220.59,31.49ZM31,17.24A5.8,5.8,0,0,0,25.22,23v1.74A5.79,5.79,0,0,0,31,30.55H220.59a5.78,5.78,0,0,0,5.78-5.78V23a5.79,5.79,0,0,0-5.78-5.79Z"/><path class="cls-1" d="M59.39,31.3a.47.47,0,0,1-.47-.47V27.72a.47.47,0,0,1,.94,0v3.11A.47.47,0,0,1,59.39,31.3Z"/><path class="cls-1" d="M77,31.3a.47.47,0,0,1-.47-.47V27.72a.47.47,0,0,1,.94,0v3.11A.47.47,0,0,1,77,31.3Z"/><path class="cls-1" d="M94.55,31.3a.47.47,0,0,1-.47-.47V27.72a.47.47,0,0,1,.47-.47.48.48,0,0,1,.47.47v3.11A.48.48,0,0,1,94.55,31.3Z"/><path class="cls-1" d="M112.12,31.3a.47.47,0,0,1-.47-.47V27.72a.47.47,0,0,1,.94,0v3.11A.47.47,0,0,1,112.12,31.3Z"/><path class="cls-1" d="M129.7,31.3a.47.47,0,0,1-.47-.47V27.72a.47.47,0,0,1,.94,0v3.11A.47.47,0,0,1,129.7,31.3Z"/><path class="cls-1" d="M147.27,31.3a.47.47,0,0,1-.47-.47V27.72a.47.47,0,1,1,.94,0v3.11A.47.47,0,0,1,147.27,31.3Z"/><path class="cls-1" d="M164.85,31.3a.47.47,0,0,1-.47-.47V27.72a.47.47,0,0,1,.94,0v3.11A.47.47,0,0,1,164.85,31.3Z"/><path class="cls-1" d="M182.43,31.3a.47.47,0,0,1-.47-.47V27.72a.47.47,0,0,1,.94,0v3.11A.47.47,0,0,1,182.43,31.3Z"/><path class="cls-1" d="M200,31.3a.47.47,0,0,1-.47-.47V27.72a.47.47,0,0,1,.94,0v3.11A.47.47,0,0,1,200,31.3Z"/><path class="cls-1" d="M217.58,31.3a.47.47,0,0,1-.47-.47V27.72a.47.47,0,0,1,.94,0v3.11A.47.47,0,0,1,217.58,31.3Z"/><path class="cls-1" d="M50.13,31.3a.47.47,0,0,1-.47-.47V24.61a.47.47,0,1,1,.94,0v6.22A.47.47,0,0,1,50.13,31.3Z"/><path class="cls-1" d="M67.79,31.3a.47.47,0,0,1-.47-.47V24.61a.47.47,0,0,1,.47-.47.48.48,0,0,1,.47.47v6.22A.48.48,0,0,1,67.79,31.3Z"/><path class="cls-1" d="M85.44,31.3a.47.47,0,0,1-.47-.47V24.61a.47.47,0,0,1,.94,0v6.22A.47.47,0,0,1,85.44,31.3Z"/><path class="cls-1" d="M103.1,31.3a.47.47,0,0,1-.47-.47V24.61a.47.47,0,0,1,.94,0v6.22A.47.47,0,0,1,103.1,31.3Z"/><path class="cls-1" d="M120.75,31.3a.47.47,0,0,1-.47-.47V24.61a.47.47,0,0,1,.94,0v6.22A.47.47,0,0,1,120.75,31.3Z"/><path class="cls-1" d="M138.41,31.3a.47.47,0,0,1-.47-.47V24.61a.47.47,0,1,1,.94,0v6.22A.47.47,0,0,1,138.41,31.3Z"/><path class="cls-1" d="M156.06,31.3a.47.47,0,0,1-.47-.47V24.61a.47.47,0,0,1,.94,0v6.22A.47.47,0,0,1,156.06,31.3Z"/><path class="cls-1" d="M173.72,31.3a.47.47,0,0,1-.47-.47V24.61a.47.47,0,1,1,.94,0v6.22A.47.47,0,0,1,173.72,31.3Z"/><path class="cls-1" d="M191.37,31.3a.47.47,0,0,1-.47-.47V24.61a.47.47,0,0,1,.94,0v6.22A.47.47,0,0,1,191.37,31.3Z"/><path class="cls-1" d="M209,31.3a.47.47,0,0,1-.47-.47V24.61a.47.47,0,1,1,.94,0v6.22A.47.47,0,0,1,209,31.3Z"/><path class="cls-2" d="M37.21.47C29,.47,26,8.38,26,8.38S23.05.47,14.8.47-1.8,10.37,3.6,21.85C9.7,34.83,26,43.22,26,43.22s16.31-8.39,22.41-21.37C53.81,10.37,45.46.47,37.21.47Z"/><path class="cls-1" d="M26,43.75l-.22-.11C25.63,43.56,9.27,35,3.17,22.05.66,16.7.87,11,3.74,6.52A13.47,13.47,0,0,1,14.8,0C21.52,0,24.89,5.11,26,7.27,27.13,5.11,30.49,0,37.21,0A13.47,13.47,0,0,1,48.27,6.52c2.88,4.52,3.09,10.18.57,15.53-6.1,13-22.45,21.51-22.62,21.59ZM14.8.94A12.53,12.53,0,0,0,4.53,7C1.84,11.27,1.65,16.6,4,21.65c5.59,11.88,20.05,20,22,21,1.94-1,16.4-9.16,22-21,2.38-5,2.19-10.38-.51-14.63A12.53,12.53,0,0,0,37.21.94c-7.82,0-10.65,7.3-10.76,7.61L26,9.72l-.44-1.17C25.45,8.24,22.62.94,14.8.94Z"/><path class="cls-2" d="M35.79,3.32c-8.25,0-11.21,7.91-11.21,7.91s-2.95-7.91-11.2-7.91S-3.22,13.22,2.17,24.7c6.1,13,22.41,21.37,22.41,21.37S40.89,37.68,47,24.7C52.39,13.22,44,3.32,35.79,3.32Z"/><path class="cls-1" d="M24.58,46.6l-.21-.11C24.2,46.41,7.84,37.87,1.75,24.9c-2.52-5.35-2.31-11,.56-15.53A13.5,13.5,0,0,1,13.38,2.85c6.72,0,10.08,5.11,11.2,7.27C25.7,8,29.07,2.85,35.79,2.85A13.47,13.47,0,0,1,46.85,9.37c2.87,4.52,3.08,10.18.57,15.53C41.32,37.87,25,46.41,24.8,46.49ZM13.38,3.79A12.52,12.52,0,0,0,3.11,9.87C.41,14.12.22,19.45,2.59,24.5c5.59,11.88,20.05,20,22,21,1.94-1,16.4-9.16,22-21,2.37-5.05,2.18-10.38-.51-14.63A12.55,12.55,0,0,0,35.79,3.79C28,3.79,25.14,11.09,25,11.4l-.44,1.17-.44-1.17C24,11.09,21.19,3.79,13.38,3.79Z"/><path class="cls-1" d="M16.09,29.36a.25.25,0,0,1-.06.2l-.22,0a11.44,11.44,0,0,1-1.32.05,9.21,9.21,0,0,1-1.41-.05c-.14,0-.21-.09-.21-.2,0-.4,0-1,.06-1.82s.06-1.41.06-1.82c0-.2-.06-.31-.17-.34A14.58,14.58,0,0,0,11,25.35a14.89,14.89,0,0,0-1.87.06c-.11,0-.17.14-.17.34,0,.4,0,1,0,1.79s0,1.39,0,1.79a.23.23,0,0,1-.21.26,9.92,9.92,0,0,1-1.44.05A9.1,9.1,0,0,1,6,29.59a.22.22,0,0,1-.22-.23c0-.55,0-1.39.08-2.5S6,24.92,6,24.36s0-1.48-.07-2.67S5.83,19.62,5.83,19A.14.14,0,0,1,6,18.86c.16,0,.4,0,.72,0l.71,0,.74,0c.33,0,.58,0,.74,0S9,18.9,9,19c0,.39,0,1-.08,1.72s-.09,1.34-.09,1.72c0,.18.05.28.15.31a12.33,12.33,0,0,0,2,.07,12.33,12.33,0,0,0,1.89-.07c.13,0,.19-.13.19-.31,0-.37,0-.92-.06-1.66s-.05-1.3-.05-1.68c0-.16.06-.23.19-.23s.38,0,.68,0l.68,0,.68,0c.31,0,.53,0,.69,0s.22.06.22.18c0,.59,0,1.47-.07,2.66s-.08,2.07-.08,2.66,0,1.39.08,2.5S16.09,28.81,16.09,29.36Z"/><path class="cls-1" d="M24.49,21.2c0,.1-.06.15-.17.15L22,21.24c0,1.29-.05,2.19-.05,2.7s0,1.51.07,2.72.07,2.11.07,2.71c0,.1,0,.16-.06.19l-.22,0a9.06,9.06,0,0,1-1.35.07,8.74,8.74,0,0,1-1.38-.07.22.22,0,0,1-.22-.23c0-.6,0-1.51.08-2.71s.08-2.11.08-2.71q0-.6-.06-2.67a23.82,23.82,0,0,1-2.44.16c-.09,0-.13,0-.13-.08a5.47,5.47,0,0,1,.11-.59c.08-.36.13-.57.14-.65,0-.24,0-.48.05-.72s.1-.57.18-.57H17a32.66,32.66,0,0,0,3.67.16c.46,0,1.3,0,2.54-.15l1-.08a.53.53,0,0,1,.18,0,.61.61,0,0,1,0,.15c0,.14,0,.33,0,.58s0,.46,0,.57a3.43,3.43,0,0,0,.05.56A5.58,5.58,0,0,1,24.49,21.2Z"/><path class="cls-1" d="M36.25,29.36c0,.16-.08.23-.22.23H33.32c-.15,0-.23-.08-.23-.26,0-.52,0-1.29.06-2.32s.06-1.81.06-2.32c0-.15,0-.23-.07-.24a22.35,22.35,0,0,0-1,2.37L31,29.53c-.05.12-.11.19-.19.21h-.3c-.27,0-.43-.05-.48-.16-.27-.56-.64-1.37-1.09-2.44s-.84-2-1.07-2.46l-.07-.09a.35.35,0,0,0-.06.23c0,.5,0,1.25,0,2.25s0,1.75,0,2.25c0,.18-.07.26-.22.26H25.06c-.1,0-.17,0-.19-.05a.34.34,0,0,1,0-.17c0-.55,0-1.39.08-2.5s.08-1.95.08-2.51,0-1.7-.08-3.33c0-.42,0-1.05-.07-1.89V19q0-.15.33-.15l1.26,0,1.26,0c.06,0,.14.11.24.32L30.16,24c.16.33.29.5.4.5s.18-.19.36-.58q.78-1.61,2.29-4.84c.09-.2.18-.3.28-.3l.67,0,.68,0,.59,0a5.22,5.22,0,0,1,.58,0c.15,0,.23.06.23.18,0,.61,0,1.5-.06,2.7s-.07,2.1-.07,2.7,0,1.39.07,2.5S36.25,28.81,36.25,29.36Z"/><path class="cls-1" d="M44.24,29.72l-1.72,0-1.71,0-2.29,0c-.23,0-.56,0-1,0a.22.22,0,0,1-.22-.23c0-.56,0-1.39,0-2.5s0-1.94,0-2.5,0-1.48,0-2.66-.05-2.07-.05-2.66c0-.11.07-.17.23-.17l.68,0,.68,0,.75,0,.75,0c.07,0,.11.05.11.15v.1q-.09,1.44-.21,4.32v2c0,.66,0,1.13,0,1.43l0,.19c0,.06,0,.1.11.11h.2c.46,0,1.15,0,2.06-.07S44.24,27,44.7,27c.13,0,.2.06.2.17a11.35,11.35,0,0,1-.19,2.26.28.28,0,0,1-.16.24Z"/><path class="cls-3" d="M50.13,40.37"/><path class="cls-4" d="M49.77,40.28"/></svg>