<svg id="레이어_1" data-name="레이어 1" xmlns="http://www.w3.org/2000/svg" viewBox="0 0 54.55 65.46"><defs><style>.cls-1{fill:#f2cfb1;}.cls-2{fill:#111;}.cls-3{fill:#eda4b2;}</style></defs><title>icon_3</title><path class="cls-1" d="M46.86,43.31A2.15,2.15,0,0,1,47.4,41c6.46-7.21,8.34-15.55,5-24.61S42.42,2,32.78.7C18.21-1.25,5,11.15,6,25.8a6.14,6.14,0,0,1-.69,3.43Q3,33.62.83,38.09c-.85,1.72,0,3,1.89,3.08.78,0,1.56,0,2.35,0,1.32-.07,1.81.56,1.79,1.83,0,2.39,0,4.79,0,7.18,0,3.64,1,4.64,4.54,4.64,2.31,0,4.61.09,6.91,0a2.13,2.13,0,0,1,2.52,1.87c.71,2.7,1.57,5.36,2.4,8.18l27.58-8.33c-.09-.44-.14-.75-.23-1.06C49.33,51.4,48.12,47.35,46.86,43.31Z"/><path class="cls-2" d="M22.87,65.46,22.72,65c-.24-.83-.49-1.65-.74-2.47-.6-2-1.16-3.81-1.66-5.72-.32-1.2-.8-1.57-2-1.5-1.64.08-3.31.06-4.92,0h-2c-2,0-3.2-.33-4-1.09s-1.09-2-1.08-4v-2c0-1.73,0-3.46,0-5.19a1.47,1.47,0,0,0-.28-1.09,1.33,1.33,0,0,0-1-.23c-.8,0-1.62,0-2.39,0A2.76,2.76,0,0,1,.3,40.5a2.71,2.71,0,0,1,.08-2.63c1.48-3,3-6,4.5-8.88a5.66,5.66,0,0,0,.63-3.15,24,24,0,0,1,7.7-19.18A24,24,0,0,1,32.85.21c9.78,1.31,16.72,6.83,20,16s1.61,17.6-5.13,25.12a1.7,1.7,0,0,0-.44,1.88c1,3.27,2,6.55,3,9.83l.7,2.31a6,6,0,0,1,.16.7l.17.84ZM18.54,54.28a2.56,2.56,0,0,1,2.74,2.25c.5,1.89,1.06,3.74,1.66,5.69.2.66.4,1.32.6,2L50.2,56.16c0-.21-.08-.39-.13-.56l-.69-2.31c-1-3.28-2-6.56-3-9.83h0A2.67,2.67,0,0,1,47,40.62C53.5,33.39,55.16,25.28,52,16.51S42.24,2.47,32.71,1.2A23,23,0,0,0,13.89,7.39,23,23,0,0,0,6.5,25.77a6.58,6.58,0,0,1-.73,3.69c-1.51,2.87-3,5.85-4.49,8.85A1.75,1.75,0,0,0,1.16,40a1.8,1.8,0,0,0,1.57.69c.75,0,1.54,0,2.31,0a2.18,2.18,0,0,1,1.73.51A2.33,2.33,0,0,1,7.36,43c0,1.72,0,3.45,0,5.17v2c0,1.78.23,2.77.79,3.34s1.53.79,3.25.79h2c1.6,0,3.25,0,4.86,0Z"/><path class="cls-3" d="M46.94,17.58a2.76,2.76,0,0,1-.54-1.71,4,4,0,0,0-2.72-4.17A3.58,3.58,0,0,1,42,10.32,3.58,3.58,0,0,0,38,8.49a2,2,0,0,1-2.21-.62,3.18,3.18,0,0,0-4.58-.44,1.71,1.71,0,0,1-2.33,0,3.29,3.29,0,0,0-5.19,1.36A1.9,1.9,0,0,1,21.53,10a3.57,3.57,0,0,0-3.81,2.73,3.3,3.3,0,0,1-1.37,1.66,4.61,4.61,0,0,0-2.11,6.42c1.34,2.38,3.93,2.94,6.39,1.32a1.63,1.63,0,0,1,2.32.09,2.62,2.62,0,0,0,3.17.52,6.25,6.25,0,0,1,8.63,3,8.62,8.62,0,0,1,.55,3.08c.07,2.19,0,4.38,0,6.61H38.4c.18-.8.31-1.57.52-2.31a20.17,20.17,0,0,1,.81-2.34,3.37,3.37,0,0,1,2.8-2.17c2.39-.36,3-1.12,3.11-3.55a2.84,2.84,0,0,1,.79-1.73A3.87,3.87,0,0,0,46.94,17.58Z"/><path class="cls-2" d="M38.81,35.91h-4v-.5c0-.65,0-1.3,0-1.94,0-1.6,0-3.11,0-4.65a8.3,8.3,0,0,0-.5-2.9A5.59,5.59,0,0,0,31,22.87a5.81,5.81,0,0,0-4.62.33,3.09,3.09,0,0,1-3.74-.59c-.58-.52-1-.53-1.72-.05a5.24,5.24,0,0,1-4.12.89,4.68,4.68,0,0,1-3-2.38,4.93,4.93,0,0,1-.47-3.78A5.61,5.61,0,0,1,16.11,14a2.79,2.79,0,0,0,1.14-1.39,4.06,4.06,0,0,1,4.31-3.06,1.42,1.42,0,0,0,1.64-1A3.78,3.78,0,0,1,29.12,7a1.24,1.24,0,0,0,1.76,0,3.68,3.68,0,0,1,5.23.5A1.51,1.51,0,0,0,37.83,8a4.07,4.07,0,0,1,4.62,2.05,3.2,3.2,0,0,0,1.42,1.18,4.49,4.49,0,0,1,3,4.66,2.3,2.3,0,0,0,.43,1.37h0a4.34,4.34,0,0,1-.56,6.41,2.3,2.3,0,0,0-.63,1.39c-.17,2.73-1,3.63-3.54,4A2.89,2.89,0,0,0,40.19,31a18.18,18.18,0,0,0-.78,2.28c-.15.51-.25,1-.36,1.55,0,.24-.1.49-.16.74Zm-3-1H38c0-.11,0-.22.07-.33.11-.55.22-1.09.37-1.62a19.46,19.46,0,0,1,.83-2.4,3.91,3.91,0,0,1,3.18-2.47c2.1-.31,2.55-.83,2.69-3.08a3.29,3.29,0,0,1,1-2.06,3.39,3.39,0,0,0,.44-5.06h0a3.37,3.37,0,0,1-.64-2,3.5,3.5,0,0,0-2.4-3.68,4.2,4.2,0,0,1-1.9-1.59A3.09,3.09,0,0,0,38.08,9a2.48,2.48,0,0,1-2.69-.77,2.69,2.69,0,0,0-3.93-.38,2.18,2.18,0,0,1-2.91,0A3.1,3.1,0,0,0,26,7.23,3,3,0,0,0,24.11,9a2.41,2.41,0,0,1-2.62,1.55c-1.6-.11-2.69.68-3.3,2.4a3.8,3.8,0,0,1-1.6,1.93,4.64,4.64,0,0,0-2.3,2.71,3.83,3.83,0,0,0,.39,3A3.69,3.69,0,0,0,17,22.48a4.22,4.22,0,0,0,3.33-.75,2.15,2.15,0,0,1,2.94.14,2.1,2.1,0,0,0,2.6.44,6.87,6.87,0,0,1,5.42-.39,6.57,6.57,0,0,1,3.9,3.6,9,9,0,0,1,.59,3.27c.05,1.56,0,3.15,0,4.68C35.83,34,35.82,34.43,35.82,34.91Z"/></svg>