<svg id="레이어_1" data-name="레이어 1" xmlns="http://www.w3.org/2000/svg" viewBox="0 0 53 53"><defs><style>.cls-1{fill:#ffc933;}.cls-2{fill:#111;}</style></defs><title>icon_1</title><circle class="cls-1" cx="26.5" cy="26.5" r="26"/><path class="cls-2" d="M26.5,53A26.5,26.5,0,1,1,53,26.5,26.53,26.53,0,0,1,26.5,53Zm0-52A25.5,25.5,0,1,0,52,26.5,25.53,25.53,0,0,0,26.5,1Z"/><path class="cls-2" d="M20.5,20a.5.5,0,0,1-.5-.5c0-2.9-1.68-5-4-5s-4,2.1-4,5a.5.5,0,0,1-1,0c0-3.48,2.1-6,5-6s5,2.52,5,6A.5.5,0,0,1,20.5,20Z"/><path class="cls-2" d="M40.5,20a.5.5,0,0,1-.5-.5c0-2.9-1.68-5-4-5s-4,2.1-4,5a.5.5,0,0,1-1,0c0-3.48,2.1-6,5-6s5,2.52,5,6A.5.5,0,0,1,40.5,20Z"/><path class="cls-2" d="M26,48.5A21.53,21.53,0,0,1,4.5,27a.5.5,0,0,1,1,0A20.53,20.53,0,0,0,26,47.5c11.65,0,21.5-9.39,21.5-20.5a.5.5,0,0,1,1,0C48.5,38.65,38.2,48.5,26,48.5Z"/></svg>