<svg id="레이어_1" data-name="레이어 1" xmlns="http://www.w3.org/2000/svg" viewBox="0 0 80.19 69.26"><defs><style>.cls-1{fill:#f2cfb1;}.cls-2{fill:#111;}.cls-3{fill:#ea4747;}</style></defs><title>icon_2</title><path class="cls-1" d="M.65,52.84c1.68-1,3.26-2.06,4.89-3,4.19-2.4,8.44-4.7,12.59-7.17A11,11,0,0,1,25,41.15q14.1,1.43,28.19,2.92a15.58,15.58,0,0,1,2.12.42c2.7.69,4.06,2.37,3.81,4.66a4.84,4.84,0,0,1-4.85,4.58c-3.66-.12-7.31-.53-11-.84-1.21-.1-2.4-.28-3.59-.42-.51,1.08-.19,1.7.81,2,11.67,3.14,18.76,4.14,27.85-5.58A13.4,13.4,0,0,1,71.6,46,9.42,9.42,0,0,1,76,44.81c2.82,0,4.43,2.75,3.43,5.73a8.16,8.16,0,0,1-2.31,3.35c-3.72,3.26-7.58,6.35-11.37,9.53a14.31,14.31,0,0,1-9.57,3.28c-10.06,0-20.12-.07-30.18-.23a29.59,29.59,0,0,0-11.7,2.14,1.9,1.9,0,0,1-1.59,0A48,48,0,0,1,.65,52.84Z"/><path class="cls-2" d="M13.43,69.26a1.69,1.69,0,0,1-1.08-.32A48,48,0,0,1,.2,53.05l-.2-.4.39-.24,1.57-1c1.13-.72,2.21-1.39,3.33-2Q7.69,48,10.1,46.69c2.56-1.43,5.21-2.92,7.78-4.45A11.4,11.4,0,0,1,25,40.65q14.1,1.43,28.19,2.93a15.29,15.29,0,0,1,2.2.43c2.93.75,4.45,2.65,4.18,5.2a5.32,5.32,0,0,1-5.37,5c-2.75-.09-5.53-.35-8.22-.59l-2.77-.25c-.83-.07-1.66-.18-2.49-.28L40,53a.84.84,0,0,0,0,.56c.09.2.4.32.64.39,11,3,18.25,4.29,27.35-5.44l.22-.23a12.87,12.87,0,0,1,3.14-2.72A9.94,9.94,0,0,1,76,44.31,4,4,0,0,1,79.35,46a5.15,5.15,0,0,1,.51,4.67,8.75,8.75,0,0,1-2.45,3.57c-2.42,2.12-5,4.2-7.39,6.22L66,63.8a14.84,14.84,0,0,1-9.85,3.4h0C47.89,67.18,37,67.14,26,67a28.82,28.82,0,0,0-11.51,2.11A2.9,2.9,0,0,1,13.43,69.26ZM1.3,53A46.89,46.89,0,0,0,13,68.18a1.57,1.57,0,0,0,1.07,0A30,30,0,0,1,26,66c11,.17,21.92.21,30.18.23h0A13.9,13.9,0,0,0,65.39,63c1.33-1.12,2.66-2.22,4-3.32,2.43-2,5-4.09,7.36-6.21a7.67,7.67,0,0,0,2.16-3.13,4.16,4.16,0,0,0-.37-3.77A3.11,3.11,0,0,0,76,45.31a8.5,8.5,0,0,0-4.13,1.14A12.14,12.14,0,0,0,69,49l-.22.24c-9.49,10.14-17,8.78-28.34,5.71A1.83,1.83,0,0,1,39.1,54a2,2,0,0,1,.16-1.73l.16-.32.35,0,1.12.14c.81.11,1.63.22,2.45.28l2.77.25c2.68.24,5.44.5,8.16.59a4.32,4.32,0,0,0,4.34-4.13c.22-2-1-3.5-3.43-4.12a14,14,0,0,0-2-.41Q39,43.08,24.94,41.65a10.4,10.4,0,0,0-6.55,1.45c-2.58,1.53-5.24,3-7.81,4.47-1.6.9-3.2,1.79-4.79,2.71-1.11.63-2.17,1.3-3.3,2Z"/><path class="cls-3" d="M53.08,5.35a2.81,2.81,0,0,0,2.35.24l7.81-3.12c.68-.28,1.08.08.88.79l-2.27,8.1a2.86,2.86,0,0,0,.5,2.31l5.38,6.46c.47.56.26,1.05-.48,1.08l-8.4.34a2.86,2.86,0,0,0-2.05,1.19l-4.48,7.11c-.39.63-.92.57-1.17-.12l-2.93-7.88a2.83,2.83,0,0,0-1.75-1.58l-8.16-2.06c-.71-.18-.82-.7-.25-1.16l6.6-5.22a2.82,2.82,0,0,0,1-2.16l-.56-8.39c-.05-.73.41-1,1-.59Z"/><path class="cls-2" d="M51.73,30.79h-.1a1.2,1.2,0,0,1-1-.87L47.76,22a2.38,2.38,0,0,0-1.42-1.27l-8.15-2.06a1.18,1.18,0,0,1-1-.85,1.2,1.2,0,0,1,.53-1.18l6.6-5.22a2.33,2.33,0,0,0,.77-1.73l-.56-8.39A1.2,1.2,0,0,1,45.07.13a1.22,1.22,0,0,1,1.29.14l7,4.66a2.36,2.36,0,0,0,1.89.2L63.05,2a1.21,1.21,0,0,1,1.29.12,1.21,1.21,0,0,1,.26,1.27l-2.27,8.1a2.37,2.37,0,0,0,.4,1.86l5.39,6.46a1.2,1.2,0,0,1,.28,1.26,1.23,1.23,0,0,1-1.13.64l-8.4.34a2.34,2.34,0,0,0-1.64.95l-4.48,7.12A1.25,1.25,0,0,1,51.73,30.79ZM38.2,17.64a1.15,1.15,0,0,0,.23.08l8.16,2.06a3.34,3.34,0,0,1,2.1,1.89l2.93,7.89a.55.55,0,0,0,.13.22,1.36,1.36,0,0,0,.15-.19l4.48-7.12a3.36,3.36,0,0,1,2.45-1.42l8.4-.34a.54.54,0,0,0,.26-.06s0-.08-.14-.2L62,14a3.39,3.39,0,0,1-.59-2.77l2.27-8.1a.77.77,0,0,0,0-.26,1.23,1.23,0,0,0-.24.07L55.62,6.06a3.41,3.41,0,0,1-2.82-.29h0l-7-4.66A.5.5,0,0,0,45.57,1a1.11,1.11,0,0,0,0,.25l.56,8.39A3.39,3.39,0,0,1,45,12.23l-6.6,5.22A.46.46,0,0,0,38.2,17.64Z"/></svg>