<svg id="레이어_1" data-name="레이어 1" xmlns="http://www.w3.org/2000/svg" viewBox="0 0 227.31 46.6"><defs><style>.cls-1{fill:#111;}.cls-2{fill:#d64141;}.cls-3,.cls-4{fill:none;stroke:#111;stroke-miterlimit:10;}.cls-3{stroke-width:0.64px;}.cls-4{stroke-width:0.65px;}</style></defs><title>js</title><path class="cls-1" d="M220.59,31.49H31a6.74,6.74,0,0,1-6.73-6.72V23A6.74,6.74,0,0,1,31,16.3H220.59A6.74,6.74,0,0,1,227.31,23v1.74A6.73,6.73,0,0,1,220.59,31.49ZM31,17.24A5.8,5.8,0,0,0,25.22,23v1.74A5.79,5.79,0,0,0,31,30.55H220.59a5.78,5.78,0,0,0,5.78-5.78V23a5.79,5.79,0,0,0-5.78-5.79Z"/><path class="cls-1" d="M59.39,31.3a.47.47,0,0,1-.47-.47V27.72a.47.47,0,0,1,.94,0v3.11A.47.47,0,0,1,59.39,31.3Z"/><path class="cls-1" d="M77,31.3a.47.47,0,0,1-.47-.47V27.72a.47.47,0,0,1,.94,0v3.11A.47.47,0,0,1,77,31.3Z"/><path class="cls-1" d="M94.55,31.3a.47.47,0,0,1-.47-.47V27.72a.47.47,0,0,1,.47-.47.48.48,0,0,1,.47.47v3.11A.48.48,0,0,1,94.55,31.3Z"/><path class="cls-1" d="M112.12,31.3a.47.47,0,0,1-.47-.47V27.72a.47.47,0,0,1,.94,0v3.11A.47.47,0,0,1,112.12,31.3Z"/><path class="cls-1" d="M129.7,31.3a.47.47,0,0,1-.47-.47V27.72a.47.47,0,0,1,.94,0v3.11A.47.47,0,0,1,129.7,31.3Z"/><path class="cls-1" d="M147.27,31.3a.47.47,0,0,1-.47-.47V27.72a.47.47,0,1,1,.94,0v3.11A.47.47,0,0,1,147.27,31.3Z"/><path class="cls-1" d="M164.85,31.3a.47.47,0,0,1-.47-.47V27.72a.47.47,0,0,1,.94,0v3.11A.47.47,0,0,1,164.85,31.3Z"/><path class="cls-1" d="M182.43,31.3a.47.47,0,0,1-.47-.47V27.72a.47.47,0,0,1,.94,0v3.11A.47.47,0,0,1,182.43,31.3Z"/><path class="cls-1" d="M200,31.3a.47.47,0,0,1-.47-.47V27.72a.47.47,0,0,1,.94,0v3.11A.47.47,0,0,1,200,31.3Z"/><path class="cls-1" d="M217.58,31.3a.47.47,0,0,1-.47-.47V27.72a.47.47,0,0,1,.94,0v3.11A.47.47,0,0,1,217.58,31.3Z"/><path class="cls-1" d="M50.13,31.3a.47.47,0,0,1-.47-.47V24.61a.47.47,0,1,1,.94,0v6.22A.47.47,0,0,1,50.13,31.3Z"/><path class="cls-1" d="M67.79,31.3a.47.47,0,0,1-.47-.47V24.61a.47.47,0,0,1,.47-.47.48.48,0,0,1,.47.47v6.22A.48.48,0,0,1,67.79,31.3Z"/><path class="cls-1" d="M85.44,31.3a.47.47,0,0,1-.47-.47V24.61a.47.47,0,0,1,.94,0v6.22A.47.47,0,0,1,85.44,31.3Z"/><path class="cls-1" d="M103.1,31.3a.47.47,0,0,1-.47-.47V24.61a.47.47,0,0,1,.94,0v6.22A.47.47,0,0,1,103.1,31.3Z"/><path class="cls-1" d="M120.75,31.3a.47.47,0,0,1-.47-.47V24.61a.47.47,0,0,1,.94,0v6.22A.47.47,0,0,1,120.75,31.3Z"/><path class="cls-1" d="M138.41,31.3a.47.47,0,0,1-.47-.47V24.61a.47.47,0,1,1,.94,0v6.22A.47.47,0,0,1,138.41,31.3Z"/><path class="cls-1" d="M156.06,31.3a.47.47,0,0,1-.47-.47V24.61a.47.47,0,0,1,.94,0v6.22A.47.47,0,0,1,156.06,31.3Z"/><path class="cls-1" d="M173.72,31.3a.47.47,0,0,1-.47-.47V24.61a.47.47,0,1,1,.94,0v6.22A.47.47,0,0,1,173.72,31.3Z"/><path class="cls-1" d="M191.37,31.3a.47.47,0,0,1-.47-.47V24.61a.47.47,0,0,1,.94,0v6.22A.47.47,0,0,1,191.37,31.3Z"/><path class="cls-1" d="M209,31.3a.47.47,0,0,1-.47-.47V24.61a.47.47,0,1,1,.94,0v6.22A.47.47,0,0,1,209,31.3Z"/><path class="cls-2" d="M37.21.47C29,.47,26,8.38,26,8.38S23.05.47,14.8.47-1.8,10.37,3.6,21.85C9.7,34.83,26,43.22,26,43.22s16.31-8.39,22.41-21.37C53.81,10.37,45.46.47,37.21.47Z"/><path class="cls-1" d="M26,43.75l-.22-.11C25.63,43.55,9.27,35,3.17,22.05.66,16.7.87,11,3.74,6.52A13.47,13.47,0,0,1,14.8,0C21.52,0,24.89,5.11,26,7.27,27.13,5.11,30.49,0,37.21,0A13.47,13.47,0,0,1,48.27,6.52c2.88,4.52,3.09,10.18.57,15.53-6.1,13-22.45,21.5-22.62,21.59ZM14.8.94A12.53,12.53,0,0,0,4.53,7C1.84,11.27,1.65,16.6,4,21.65c5.59,11.88,20.05,20,22,21,1.94-1,16.4-9.16,22-21,2.38-5,2.19-10.38-.51-14.63A12.53,12.53,0,0,0,37.21.94c-7.82,0-10.65,7.3-10.76,7.61L26,9.72l-.44-1.17C25.45,8.24,22.62.94,14.8.94Z"/><path class="cls-2" d="M35.79,3.32c-8.25,0-11.21,7.91-11.21,7.91s-2.95-7.91-11.2-7.91S-3.22,13.22,2.17,24.7c6.1,13,22.41,21.37,22.41,21.37S40.89,37.68,47,24.7C52.39,13.22,44,3.32,35.79,3.32Z"/><path class="cls-1" d="M24.58,46.6l-.21-.11C24.2,46.41,7.84,37.87,1.75,24.9c-2.52-5.35-2.31-11,.56-15.53A13.5,13.5,0,0,1,13.38,2.85c6.72,0,10.08,5.11,11.2,7.27C25.7,8,29.07,2.85,35.79,2.85A13.47,13.47,0,0,1,46.85,9.37c2.87,4.52,3.08,10.18.57,15.53C41.32,37.87,25,46.41,24.8,46.49ZM13.38,3.79A12.52,12.52,0,0,0,3.11,9.87C.41,14.12.22,19.45,2.59,24.5c5.59,11.88,20.05,20,22,21,1.94-1,16.4-9.16,22-21,2.37-5.05,2.18-10.38-.51-14.63A12.55,12.55,0,0,0,35.79,3.79C28,3.79,25.14,11.09,25,11.4l-.44,1.17-.44-1.17C24,11.09,21.19,3.79,13.38,3.79Z"/><path class="cls-1" d="M23.92,25.4a12.76,12.76,0,0,1-.37,3.5,7.13,7.13,0,0,1-2.15,3.44.55.55,0,0,1-.28.16.26.26,0,0,1-.2-.12q-.32-.37-1-1.11c-.26-.22-.64-.56-1.15-1a.33.33,0,0,1-.1-.18.28.28,0,0,1,.1-.17,9.58,9.58,0,0,0,.85-.8A2.84,2.84,0,0,0,20.17,28a11.49,11.49,0,0,0,.26-2.89,60.09,60.09,0,0,0-.33-7.21.72.72,0,0,1,0-.13c0-.11.09-.17.28-.17l.86,0,.85,0,.81,0,.8,0q.27,0,.27.24c0,.83,0,2.08,0,3.76S23.92,24.56,23.92,25.4Z"/><path class="cls-1" d="M30.4,23a.41.41,0,0,1-.13.24,2.22,2.22,0,0,0-.51-.06,1.67,1.67,0,0,0-.9.23.87.87,0,0,0-.43.77,1.33,1.33,0,0,0,.46.81,8.58,8.58,0,0,1,.86,1,2.53,2.53,0,0,1,.46,1.47,3,3,0,0,1-.18,1,1.94,1.94,0,0,1-.52.83,6.64,6.64,0,0,1-1.57,1,4.65,4.65,0,0,1-1.78.41c-.12,0-.39-.33-.81-1a3.88,3.88,0,0,1-.63-1.2c0-.05,0-.09.1-.1l1.28-.23c.53-.17.79-.45.79-.84a1.5,1.5,0,0,0-.46-.92c-.55-.61-.84-.93-.86-1A2.3,2.3,0,0,1,25.11,24a2.78,2.78,0,0,1,1.37-2.31,4.59,4.59,0,0,1,2.64-.84c.09,0,.33.33.71,1A4.72,4.72,0,0,1,30.4,23Z"/><path class="cls-3" d="M50.13,40.37"/><path class="cls-4" d="M49.77,40.28"/></svg>