<svg id="레이어_1" data-name="레이어 1" xmlns="http://www.w3.org/2000/svg" xmlns:xlink="http://www.w3.org/1999/xlink" viewBox="0 0 424.24 342.72"><defs><style>.cls-1,.cls-10,.cls-11,.cls-12,.cls-14,.cls-7,.cls-9{fill:none;}.cls-2{fill:#f2be45;}.cls-3{clip-path:url(#clip-path);}.cls-4{fill:#e4edef;}.cls-10,.cls-12,.cls-15,.cls-17,.cls-4,.cls-5,.cls-6,.cls-7,.cls-8{stroke:#111;}.cls-10,.cls-12,.cls-17,.cls-4,.cls-5,.cls-7{stroke-linecap:round;stroke-linejoin:round;}.cls-15,.cls-4{stroke-width:0.9px;}.cls-18,.cls-5{fill:#f4d5c1;}.cls-12,.cls-17,.cls-5,.cls-8{stroke-width:0.9px;}.cls-6{fill:#1c1412;stroke-width:0.9px;}.cls-11,.cls-14,.cls-15,.cls-6,.cls-8,.cls-9{stroke-miterlimit:10;}.cls-7{stroke-width:1.2px;}.cls-8{fill:#e2798d;}.cls-9{stroke:#ce6a6a;}.cls-10,.cls-11,.cls-14,.cls-9{stroke-width:0.6px;}.cls-11{stroke:#824a4a;}.cls-13{fill:#2d221f;}.cls-14{stroke:#6ed85b;}.cls-15{fill:#dde8f0;}.cls-16,.cls-17{fill:#fff2a6;}</style><clipPath id="clip-path" transform="translate(36.78)"><path class="cls-1" d="M341,170.5a173.18,173.18,0,0,1-3,32.5c98.93,28.53,22.93,111.53,22.93,111.53s-28,1-90.93-5.53a168.51,168.51,0,0,1-99.5,32A170.5,170.5,0,1,1,341,170.5Z"/></clipPath></defs><title>무제-1</title><circle class="cls-2" cx="207.28" cy="170.5" r="170.5"/><g class="cls-3"><path class="cls-4" d="M333.52,281.52s-7.12,21.94-6.45,28.33l-5.34-1.44-9.63-15s-1.8-9-1.2-9.63S333.52,281.52,333.52,281.52Z" transform="translate(36.78)"/><path class="cls-5" d="M386.63,245.79a16.92,16.92,0,0,0-3.48-6.81,37.54,37.54,0,0,0-7.26-6.41c-5.2-3.68-11-6.36-16.84-8.89-42.15-18.35-88.2-25.5-133-34.26a71.91,71.91,0,0,1-13.21-3.6c-5.2-2.11-10.67-4.85-16.3-5.55a73.31,73.31,0,0,0-12,0L140.3,205.52l1.89,27.71,13.22-13.86c6.4.64,13.38,1.64,19.76.33,3.13-.65,6.13-2,9.21-2.85,14.57-4.08,29.64.87,43.17,6.25,12.09,4.81,26.15,8.88,37,16.13,1.95,1.29,5.76,3.68,10.69,6.57l.14.21c2.65,1.44,19.8,10.74,23.73,12.75-3.93-2-21.08-11.31-23.73-12.75l26.1,38.22,18.25,0c12-.62,23.71-3.74,34.95-7.77,9.42-3.38,20.28-6.42,25.85-15.39,1.48-2.39,3.7-4.26,5.07-6.71A11.73,11.73,0,0,0,386.63,245.79Z" transform="translate(36.78)"/><path class="cls-5" d="M75.07,189.29s7.22,6,6.62,13.24a148.78,148.78,0,0,1-3,17.44l48.73,51.74,25.87,16.85,6.62-37.9-10.23-35.5v-6C149.67,206.14,97.33,161,75.07,189.29Z" transform="translate(36.78)"/><path class="cls-5" d="M113.57,69.58a46.4,46.4,0,0,1,12-.61c6,.61,28.27,3,45.12,32.49a59.84,59.84,0,0,1,2.4,6.62,27.93,27.93,0,0,0,1.81,5.41,14.23,14.23,0,0,1,1.2,4.81,7.36,7.36,0,0,1,.6,3s6.62,7.22,7.22,15.64,0,9.63-3,13.84c0,0,2.41,8.42,3.61,9.63s1.21,1.2,1.21,2.4c0,0,.6,10.23,1.8,15s4.21,10.23,4.81,13.24,0,10.83-11.43,14.44-13.83,4.21-19.25,4.81c-5.94.66-12,1.54-18.08,1.83-7.87.38-15.14-1.3-22.6-3.56-6.45-2-13.37-3.59-18.7-8l-.15-.12a98.08,98.08,0,0,1-9-8.84c.16.18-.76,1.06-.9,1.16-2.09,1.56-6.34,1.24-8.73.64S67,188.39,68.76,184.18c0,0-13.54-15.34-12.94-17.15S113.57,69.58,113.57,69.58Z" transform="translate(36.78)"/><path class="cls-6" d="M169,98.54l-3.08,8.33a12.33,12.33,0,0,0-.6,3,22.65,22.65,0,0,0,.6,6s1.21-.6,3-5.42,2.53-4.88,2.77-6.65A5.8,5.8,0,0,0,169,98.54Z" transform="translate(36.78)"/><path class="cls-6" d="M159.9,86.56C145.46,71.07,130.39,69.45,125.61,69a49.2,49.2,0,0,0-12.11.53s4.29,1.28,3.08,4.29-5.41,7.22-4.81,24.66S119,118.91,107,140.56s-15,23.47-18,27.08-5.42,4.81-10.83,7.21c0,0-7.22,2.41-9,9,0,0-2,3.21,8,7.32,0,0,3.82,3.91,4.52,8.82S79.28,217.57,78.68,220s4.81,9.63,4.81,9.63S1.08,313.82-6.74,328.26s-20.46,12-20.46,12c1.2-1.8,6.62-9-.6-25.26a104.15,104.15,0,0,1-8.42-46.33c.6-13.23,12.63-33.08,21-44.51s15-24.67,21.66-40.31,12.63-42.11,13.84-51.14S28.15,96.65,38.38,78.6,73.27,61.15,73.27,61.15c1.8-5.41,16.84-12.63,39.1-9.62s37.3,15,41.51,19.25,6,15.78,6,15.78" transform="translate(36.78)"/><path class="cls-6" d="M152.08,116.5l-19.25,5.41s-1.21,0-3,1.81-6,9-6.62,12c0,0,4.81-5.41,9.63-7.22s15-4.81,17.44-4.81a2.63,2.63,0,0,0,2.41-1.81C153.28,120.11,154.48,115.9,152.08,116.5Z" transform="translate(36.78)"/><path class="cls-7" d="M176.14,118.65a8,8,0,0,1-5.41,2.66s-1.51.3-1.51,1.51" transform="translate(36.78)"/><path class="cls-7" d="M130.42,144.17s15.64-3,18.65-4.21,6-3,4.81-6" transform="translate(36.78)"/><path class="cls-5" d="M173.29,160.57a10.18,10.18,0,0,1-6.78-.15c-4.81-1.81-3.6-8.43-3.6-8.43" transform="translate(36.78)"/><path class="cls-5" d="M165.91,115.9a20.43,20.43,0,0,0,0,6.62c.6,3.61,4.82,8.42,6.62,10.22q3.45,3.45,6.93,6.86c1.34,1.3,2.68,2.6,4,3.86,1.2,1.11,2.89,2.09,3.44,3.78a6.13,6.13,0,0,1-.58,5.36c-1.81,2.4-3.61,1.8-4.82,1.8a8.91,8.91,0,0,0-2.72.24,4.72,4.72,0,0,0-2.06,1.27,4.88,4.88,0,0,0-.61.75,5.81,5.81,0,0,0-.56,1" transform="translate(36.78)"/><path class="cls-8" d="M165.37,178.54a5,5,0,0,1,1.31-.36,8.47,8.47,0,0,0,1.75-.82,15.6,15.6,0,0,0,4.65-4.54c.23-.32.44-.64.65-1,4.22-6.62,6-10.83,9.63-7.82,0,0,1.15-3,2.08-2.68s4.16,2.51.74,6.8c0,0,2.59-.51,2.59,3.1s-1.2,6-5.41,7.21a50.26,50.26,0,0,1-17.45,1.21,1,1,0,0,1-.61-.22.6.6,0,0,1-.14-.54A.47.47,0,0,1,165.37,178.54Z" transform="translate(36.78)"/><path class="cls-9" d="M183.36,174.85" transform="translate(36.78)"/><path class="cls-10" d="M170.73,177.86a10.38,10.38,0,0,0,3.61-2.4c1.5-1.5,3.59-2.07,5.52-2.79a13.79,13.79,0,0,0,5.45-3.82c.28-.3.74-1,1.17-1.09" transform="translate(36.78)"/><path class="cls-5" d="M69.06,183.88c-.54,1.26.39,2.48,1.27,3.3a19.33,19.33,0,0,0,4.73,3,52.34,52.34,0,0,0,5.4,2.29,23.05,23.05,0,0,0,3.05,1,16.24,16.24,0,0,0,5.65.24c1.53-.22,3.08-.63,4-2a5.84,5.84,0,0,0,.59-4.24" transform="translate(36.78)"/><path class="cls-11" d="M185.77,162.82" transform="translate(36.78)"/><path class="cls-11" d="M184.56,160.42" transform="translate(36.78)"/><path class="cls-11" d="M184,137" transform="translate(36.78)"/><path class="cls-11" d="M176.14,118.3" transform="translate(36.78)"/><path class="cls-11" d="M179.75,118.3" transform="translate(36.78)"/><path class="cls-11" d="M176.49,118.17" transform="translate(36.78)"/><path class="cls-11" d="M178.55,119.51" transform="translate(36.78)"/><path class="cls-7" d="M175.16,119.6" transform="translate(36.78)"/><path class="cls-12" d="M86.5,209.15s7.22,10.82,7.22,15" transform="translate(36.78)"/><path class="cls-12" d="M99.74,207.94s15.64,9.63,24.66,33.69" transform="translate(36.78)"/><path class="cls-12" d="M144.26,217.57s-10.23,10.83-7.82,37.9" transform="translate(36.78)"/><path class="cls-12" d="M146.06,244c-.77,4.5-.11,8.38.59,12.77.43,2.65,1,7.1-.59,9.49" transform="translate(36.78)"/><path class="cls-13" d="M37,101c-2.49,6.54-3.17,13.59-4.29,20.5A158.58,158.58,0,0,1,21.37,160a69.27,69.27,0,0,0,17.55-27,23.38,23.38,0,0,1-4.66,17.57c6.77-2.55,10.9-9.56,12.64-16.59s1.62-14.37,2.81-21.5a59.6,59.6,0,0,1,18-33.5c-2.84-.36-5.48,1.43-7.66,3.29A57.33,57.33,0,0,0,44,104.77c.55-1.4.48-3.34.83-4.83a40.39,40.39,0,0,1,1.45-4.85,42.64,42.64,0,0,1,2-4.64c.52-1,2.29-3.06,1.91-4.06C43.83,88,39.17,95.34,37,101Z" transform="translate(36.78)"/><path class="cls-13" d="M75.41,99.43c-2.57,3.92-4.16,8.73-5.34,13.59-2.53,10.39-3.38,21.28-5,31.94s-4.26,21.43-9.7,29.84c2.77-1.24,4.68-4.41,6.31-7.51a133.09,133.09,0,0,0,7.67-17.67,53.73,53.73,0,0,1-1,10.57c-.8,3.41-2.39,6.66-4.83,8.45,3.12,0,5.95-2.58,7.7-5.84s2.6-7.13,3.43-10.93a42.11,42.11,0,0,1-3.82,15.77C77,163.38,80.5,155,83.52,146.93A56.39,56.39,0,0,0,87,135.11c.65-4.51.32-9.14.09-13.71s-.35-9.26.68-13.65,3.45-8.51,6.88-10c-4.68-2-9.92,1.59-12.74,6.7s-3.78,11.46-4.67,17.59c.42-2.9.34-5.93.79-8.86a68.41,68.41,0,0,1,1.92-8.75A65.17,65.17,0,0,1,83,96.05c.26-.59,1.59-2.59,1.11-3.32s-2.25.57-2.74.86A18,18,0,0,0,75.41,99.43Z" transform="translate(36.78)"/><path class="cls-14" d="M91.77,61.08" transform="translate(36.78)"/><path class="cls-13" d="M137.85,67.41a82.44,82.44,0,0,0-15-3.83A29.8,29.8,0,0,0,107.6,65.2c.69-2.49,1.59-4.44,4.17-4.65-6.37-4.81-21.43-.39-21.43-.39a15.59,15.59,0,0,1,9.72-4.65,39.48,39.48,0,0,1,11,.55q6.93,1.08,13.76,2.7c3.92.93,7.94,2.07,11,4.69.07.11-3.54-1.7-7.15-.49C128.61,63,134.45,64,137.85,67.41Z" transform="translate(36.78)"/><path class="cls-13" d="M27.88,187.35c-1.94,4.13-4,8.43-6.85,11a90.32,90.32,0,0,0,3.11-15.17,132.25,132.25,0,0,1-8.62,16.4c-3.26,5-7.18,9.19-11.47,11,6.51-10.12,13.22-20.71,16.57-33.5L5.86,203.84a42.66,42.66,0,0,1-4,6.33c-1.51,1.83-3.31,3.21-5.11,3.34,3-5.59,5.69-11.43,8.19-17.45,4.75-11.49,8.72-23.85,15-33.76,4.89-7.8,11.05-13.86,15.14-22.59a67.7,67.7,0,0,1-8.16,24.13,85.32,85.32,0,0,0,8-13.09,41.78,41.78,0,0,1-6.3,16c1.64-2.4,3.93-4.23,5.72-6.45s3.51-5.19,5.39-7.28c.11,2.58-1,6.2-1.67,8.74-.8,3-1.78,6-2.85,8.88C33,176.4,30.43,181.89,27.88,187.35Z" transform="translate(36.78)"/><path class="cls-4" d="M326.54,308.41a49.19,49.19,0,0,1-3.52-12c-.71-4.57-1.56-9.23-3.85-13.27l-5-8.79-6.57-11.56-9.25-5.05-31-16.77s-2.08-1.32-2.78-1.78a47.62,47.62,0,0,0-5.86-3.16l-.75.15s-7.82,3-21.66,0-18.05-3-22.86-4.21-30.68-9-32.49-9-10.22-1.8-13.23.6l-12.64,3.61,10.23,39.11-4.67,25.1-32-15.48-24.06-36.09L99.74,229l-1.81-2.41-9.62-.6L63,235c-.6,0-6.62,7.82-9.62,10.83s-9,9.63-15.65,13.24-15,6.62-19.25,10.22-11.43,4.82-18,16.85-10.22,36.7-10.22,56H242.32s-1.21-12.64-4.82-22.86-3.61-11.43-4.21-19.86c0,0,21.06-3,30.68-3,6.68,0,13.67,2.16,20.11,3.7q13.83,3.3,27.48,7.36c3.2.95,6.4,1.93,9.56,3,1.1.37,2.2.76,3.28,1.19.72.28,2.08,1.3,2.76.6S326.85,309.14,326.54,308.41Z" transform="translate(36.78)"/><path class="cls-12" d="M88.31,236.22s8.42-.6,9.62-1.21" transform="translate(36.78)"/><path class="cls-12" d="M59.43,247.43C65.78,252.38,65.14,265,65,272.1" transform="translate(36.78)"/><path class="cls-12" d="M64.85,312A7.79,7.79,0,0,1,68,318.18a60.28,60.28,0,0,1-3,21.91" transform="translate(36.78)"/><path class="cls-12" d="M180.35,315.63a5.24,5.24,0,0,1,3,1.8,18.15,18.15,0,0,0,4.2,3.89c1.69,1.1,3.74,1.47,5.37,2.61A15.39,15.39,0,0,1,197,329l7.82,13.23" transform="translate(36.78)"/><path class="cls-12" d="M218.46,240.09c1.23,1.64,1.3,3.84,1.4,5.89.64,12.35,4.6,24.27,8.69,36,2,5.88,4.46,11.23,4.74,17.45" transform="translate(36.78)"/><path class="cls-12" d="M226.89,240.63c-1,.75-1.07,2.09-1.11,3.25a105.8,105.8,0,0,1-2.63,21.05" transform="translate(36.78)"/><path class="cls-12" d="M234.15,245.59A80,80,0,0,0,233,259a60,60,0,0,1-.29,9.2c-.31,2-.9,3.93-1.23,5.92a11.65,11.65,0,0,0,.32,6" transform="translate(36.78)"/><path class="cls-12" d="M245.23,251.61c-5.55,10.95-11.11,21.94-15.36,33.45" transform="translate(36.78)"/><path class="cls-12" d="M251.59,247.32c-1,2.68-3.18,4.67-4.5,7.18-.82,1.57-.81,3.33-1.21,5a23.58,23.58,0,0,1-1.84,4.79c-1,2-2.12,4-3,6a56.87,56.87,0,0,1-2.59,6.26,42.42,42.42,0,0,1-3.89,5.25c-1.72,2.17-3.23,4.73-3.12,7.5,0,0,0,.38.11,1.1" transform="translate(36.78)"/><path class="cls-12" d="M263.84,296.38q-.09-1.17-.15-2.34c-.94-18.05-1.26-36.33,1.71-54.27" transform="translate(36.78)"/><path class="cls-12" d="M281.5,248.67a55.09,55.09,0,0,1-1.22,28.71,28.15,28.15,0,0,1-4.4,8.94,14.35,14.35,0,0,1-8.2,5.39" transform="translate(36.78)"/><path class="cls-10" d="M171.19,121.25" transform="translate(36.78)"/><path class="cls-4" d="M164.71,232.61s6,1.8,8.42,1.8c2,0,3.92.12,5.87-.07,1.72-.16,4.59-.5,5.48-2.25,0,.09-3.77-1.58-4.17-1.76a40.18,40.18,0,0,1-6.9-3.78c-2.23-1.59-3.5-3.83-5.49-5.59l-3.81-3.39-4.81-.6-1.21,9.62,4.21,6Z" transform="translate(36.78)"/><path class="cls-4" d="M191.18,252.46a13.25,13.25,0,0,0-3.8-4.19c-2.95-2.38-6-4.82-9-7.16a84.84,84.84,0,0,0-9.38-6.73c-2.19-1.25-4.41-2.45-6.67-3.58-8.33,6.55-12.64,6.63-12.73,6.64a13.07,13.07,0,0,0,.7,1.79c1.81,3.6,3.61,13.23,3.61,21s-2.4,22.86-2.4,22.86v.6l2.4,9.63,15.39,7.94c-1-.51.12-3.87.3-4.57a49.46,49.46,0,0,1,1.85-5.55,73.64,73.64,0,0,1,6.81-13.68q4.52-6.75,9.28-13.35a37.62,37.62,0,0,0,3.76-5.91A5.89,5.89,0,0,0,191.18,252.46Z" transform="translate(36.78)"/><path class="cls-4" d="M160.5,218.77c3-4.21,11.43,6.62,11.43,6.62-.6-1.2-2.41-3-6.62-7.22s-9-3-12-3a3.7,3.7,0,0,1-3.61-2.89c0,.73-1.2,11.31-1.2,14.32,0,2.55,0,7.27,1.1,10.85.09,0,4.4-.09,12.73-6.64C161.7,227.79,157.49,223,160.5,218.77Z" transform="translate(36.78)"/><path class="cls-4" d="M79.41,216.67a16.7,16.7,0,0,0,4.67,3.77,32.72,32.72,0,0,0,6.75,3c2.56.84,6.48.45,8.71,2,1.21.84,2,3.17,2.69,4.46q1.74,3.15,3.52,6.29c2.41,4.21,15,13.83,18.65,16.84s45.12,46.32,54.15,60.16c0,0-16.85-16.24-34.29-21.66s-39.71-24.66-41.51-26.47-4.22-2.4-3-9,3-12.63,2.4-16.85a24.27,24.27,0,0,0-2.26-6.66c-.89-1.89-1.34-4.56-3.54-5.22-1.87-.56-4.39,0-6.23.45-4,1-4.32,4.92-6.19,8.15-2.1,3.63-5.16,8.13-9.45,9.3-6.62,1.81-6.62,4.81-11.43,2.41s-7.82-3.61-7.82-4.21c1.75-2.47,3.41-5,5-7.56,1.33-2.14,2.63-4.3,3.8-6.53,1.09-2.08,1.44-4.95,3-6.73a20.14,20.14,0,0,1,3.6-2.65C71.76,219.21,78,214.82,79.41,216.67Z" transform="translate(36.78)"/><path class="cls-15" d="M166.19,318.16c.95-1.11,2.79-1,4.06-.65a7.12,7.12,0,0,1,4,3.24,9.08,9.08,0,0,1,1.27,3.37,3,3,0,0,1-.15,1.66c-.72,1.78-3,2-4.63,1.59a6.38,6.38,0,0,1-4.45-3.88,8.14,8.14,0,0,1-.57-4.11A2.17,2.17,0,0,1,166.19,318.16Z" transform="translate(36.78)"/><path class="cls-12" d="M337.74,270.67s-16.28-.61-30.14-7.84" transform="translate(36.78)"/><path class="cls-16" d="M229.77,285.33" transform="translate(36.78)"/><path class="cls-17" d="M244.3,286.34" transform="translate(36.78)"/><path class="cls-12" d="M235.85,299l7.15-4.95c2.23-1.55,4.53-3,6.71-4.64s4.74-3.29,5.39-6" transform="translate(36.78)"/><path class="cls-5" d="M171.7,161" transform="translate(36.78)"/><polygon class="cls-18" points="155.99 203.45 154.18 210.08 172.87 213.7 174.68 207.67 155.99 203.45"/></g></svg>