<svg id="레이어_1" data-name="레이어 1" xmlns="http://www.w3.org/2000/svg" viewBox="0 0 227.31 46.6"><defs><style>.cls-1{fill:#111;}.cls-2{fill:#d64141;}.cls-3,.cls-4{fill:none;stroke:#111;stroke-miterlimit:10;}.cls-3{stroke-width:0.64px;}.cls-4{stroke-width:0.65px;}</style></defs><title>ps</title><path class="cls-1" d="M220.59,31.49H31a6.74,6.74,0,0,1-6.73-6.72V23A6.74,6.74,0,0,1,31,16.3H220.59A6.74,6.74,0,0,1,227.31,23v1.74A6.73,6.73,0,0,1,220.59,31.49ZM31,17.24A5.8,5.8,0,0,0,25.22,23v1.74A5.79,5.79,0,0,0,31,30.55H220.59a5.78,5.78,0,0,0,5.78-5.78V23a5.79,5.79,0,0,0-5.78-5.79Z"/><path class="cls-1" d="M59.39,31.3a.47.47,0,0,1-.47-.47V27.72a.47.47,0,0,1,.94,0v3.11A.47.47,0,0,1,59.39,31.3Z"/><path class="cls-1" d="M77,31.3a.47.47,0,0,1-.47-.47V27.72a.47.47,0,0,1,.94,0v3.11A.47.47,0,0,1,77,31.3Z"/><path class="cls-1" d="M94.55,31.3a.47.47,0,0,1-.47-.47V27.72a.47.47,0,0,1,.47-.47.48.48,0,0,1,.47.47v3.11A.48.48,0,0,1,94.55,31.3Z"/><path class="cls-1" d="M112.12,31.3a.47.47,0,0,1-.47-.47V27.72a.47.47,0,0,1,.94,0v3.11A.47.47,0,0,1,112.12,31.3Z"/><path class="cls-1" d="M129.7,31.3a.47.47,0,0,1-.47-.47V27.72a.47.47,0,0,1,.94,0v3.11A.47.47,0,0,1,129.7,31.3Z"/><path class="cls-1" d="M147.27,31.3a.47.47,0,0,1-.47-.47V27.72a.47.47,0,1,1,.94,0v3.11A.47.47,0,0,1,147.27,31.3Z"/><path class="cls-1" d="M164.85,31.3a.47.47,0,0,1-.47-.47V27.72a.47.47,0,0,1,.94,0v3.11A.47.47,0,0,1,164.85,31.3Z"/><path class="cls-1" d="M182.43,31.3a.47.47,0,0,1-.47-.47V27.72a.47.47,0,0,1,.94,0v3.11A.47.47,0,0,1,182.43,31.3Z"/><path class="cls-1" d="M200,31.3a.47.47,0,0,1-.47-.47V27.72a.47.47,0,0,1,.94,0v3.11A.47.47,0,0,1,200,31.3Z"/><path class="cls-1" d="M217.58,31.3a.47.47,0,0,1-.47-.47V27.72a.47.47,0,0,1,.94,0v3.11A.47.47,0,0,1,217.58,31.3Z"/><path class="cls-1" d="M50.13,31.3a.47.47,0,0,1-.47-.47V24.61a.47.47,0,1,1,.94,0v6.22A.47.47,0,0,1,50.13,31.3Z"/><path class="cls-1" d="M67.79,31.3a.47.47,0,0,1-.47-.47V24.61a.47.47,0,0,1,.47-.47.48.48,0,0,1,.47.47v6.22A.48.48,0,0,1,67.79,31.3Z"/><path class="cls-1" d="M85.44,31.3a.47.47,0,0,1-.47-.47V24.61a.47.47,0,0,1,.94,0v6.22A.47.47,0,0,1,85.44,31.3Z"/><path class="cls-1" d="M103.1,31.3a.47.47,0,0,1-.47-.47V24.61a.47.47,0,0,1,.94,0v6.22A.47.47,0,0,1,103.1,31.3Z"/><path class="cls-1" d="M120.75,31.3a.47.47,0,0,1-.47-.47V24.61a.47.47,0,0,1,.94,0v6.22A.47.47,0,0,1,120.75,31.3Z"/><path class="cls-1" d="M138.41,31.3a.47.47,0,0,1-.47-.47V24.61a.47.47,0,1,1,.94,0v6.22A.47.47,0,0,1,138.41,31.3Z"/><path class="cls-1" d="M156.06,31.3a.47.47,0,0,1-.47-.47V24.61a.47.47,0,0,1,.94,0v6.22A.47.47,0,0,1,156.06,31.3Z"/><path class="cls-1" d="M173.72,31.3a.47.47,0,0,1-.47-.47V24.61a.47.47,0,1,1,.94,0v6.22A.47.47,0,0,1,173.72,31.3Z"/><path class="cls-1" d="M191.37,31.3a.47.47,0,0,1-.47-.47V24.61a.47.47,0,0,1,.94,0v6.22A.47.47,0,0,1,191.37,31.3Z"/><path class="cls-1" d="M209,31.3a.47.47,0,0,1-.47-.47V24.61a.47.47,0,1,1,.94,0v6.22A.47.47,0,0,1,209,31.3Z"/><path class="cls-2" d="M37.21.47C29,.47,26,8.38,26,8.38S23.05.47,14.8.47-1.8,10.37,3.6,21.85C9.7,34.83,26,43.22,26,43.22s16.31-8.39,22.41-21.37C53.81,10.37,45.46.47,37.21.47Z"/><path class="cls-1" d="M26,43.75l-.22-.11C25.63,43.56,9.27,35,3.17,22.05.66,16.7.87,11,3.74,6.52A13.47,13.47,0,0,1,14.8,0C21.52,0,24.89,5.11,26,7.27,27.13,5.11,30.49,0,37.21,0A13.47,13.47,0,0,1,48.27,6.52c2.88,4.52,3.09,10.18.57,15.53-6.1,13-22.45,21.51-22.62,21.59ZM14.8.94A12.53,12.53,0,0,0,4.53,7C1.83,11.27,1.65,16.6,4,21.65c5.59,11.88,20.05,20,22,21,1.94-1,16.4-9.16,22-21,2.38-5,2.19-10.38-.51-14.63A12.53,12.53,0,0,0,37.21.94c-7.82,0-10.65,7.3-10.76,7.61L26,9.72l-.44-1.17C25.45,8.24,22.62.94,14.8.94Z"/><path class="cls-2" d="M35.79,3.32c-8.25,0-11.21,7.91-11.21,7.91s-2.95-7.91-11.2-7.91S-3.22,13.22,2.17,24.7c6.1,13,22.41,21.37,22.41,21.37S40.89,37.68,47,24.7C52.39,13.22,44,3.32,35.79,3.32Z"/><path class="cls-1" d="M24.58,46.6l-.21-.11C24.2,46.41,7.84,37.87,1.75,24.9c-2.52-5.35-2.31-11,.56-15.53A13.5,13.5,0,0,1,13.38,2.85c6.72,0,10.08,5.11,11.2,7.27C25.7,8,29.07,2.85,35.79,2.85A13.47,13.47,0,0,1,46.85,9.37c2.87,4.52,3.08,10.18.57,15.53C41.32,37.87,25,46.41,24.8,46.49ZM13.38,3.79A12.52,12.52,0,0,0,3.11,9.87C.41,14.12.22,19.45,2.59,24.5c5.59,11.88,20.05,20,22,21,1.94-1,16.4-9.16,22-21,2.37-5.05,2.18-10.38-.51-14.63A12.55,12.55,0,0,0,35.79,3.79C28,3.79,25.14,11.09,25,11.4l-.44,1.17-.44-1.17C24,11.09,21.19,3.79,13.38,3.79Z"/><path class="cls-1" d="M27.29,23.06a4.85,4.85,0,0,1-1.06,3.27,3.89,3.89,0,0,1-3.13,1.33c-.23,0-.56,0-1,0l-1,0c-.23,0-.35.1-.35.3s0,.64.07,1.15.08.88.08,1.13-.06.2-.18.2l-1.53,0-1.53,0a.21.21,0,0,1-.24-.24q0-.93,0-2.79c0-1.24,0-2.17,0-2.78,0-1.75-.07-3.59-.23-5.51v-.12c0-.11.07-.17.25-.19a27.39,27.39,0,0,1,2.87-.09c.87,0,1.71,0,2.51,0a4.56,4.56,0,0,1,3.19,1.24A4.26,4.26,0,0,1,27.29,23.06ZM24,23.19a1.7,1.7,0,0,0-1.9-1.94c-.89,0-1.36.05-1.4.15a13.17,13.17,0,0,0-.06,1.93c0,.17,0,.42,0,.76s0,.59,0,.77.5.16,1.51.16A1.61,1.61,0,0,0,24,23.19Z"/><path class="cls-1" d="M32.75,23.55c0,.06,0,.13-.13.23a1.84,1.84,0,0,0-.47-.06,1.41,1.41,0,0,0-.82.22.77.77,0,0,0-.4.71,1.26,1.26,0,0,0,.42.74,8.06,8.06,0,0,1,.8.91,2.42,2.42,0,0,1,.42,1.36,2.51,2.51,0,0,1-.17.9,1.73,1.73,0,0,1-.48.77,5.49,5.49,0,0,1-1.44.9,4.19,4.19,0,0,1-1.65.39c-.11,0-.36-.31-.75-.91a3.74,3.74,0,0,1-.58-1.11q0-.08.09-.09l1.18-.22c.49-.15.74-.41.74-.76a1.4,1.4,0,0,0-.43-.85c-.51-.57-.77-.86-.79-.9a2.11,2.11,0,0,1-.43-1.27,2.55,2.55,0,0,1,1.27-2.13,4.29,4.29,0,0,1,2.43-.77c.09,0,.31.3.66.89A4.53,4.53,0,0,1,32.75,23.55Z"/><path class="cls-3" d="M50.13,40.37"/><path class="cls-4" d="M49.77,40.28"/></svg>